G04 #@! TF.GenerationSoftware,KiCad,Pcbnew,(5.1.5)-3*
G04 #@! TF.CreationDate,2019-12-27T21:02:48-05:00*
G04 #@! TF.ProjectId,pi-altim,70692d61-6c74-4696-9d2e-6b696361645f,rev?*
G04 #@! TF.SameCoordinates,Original*
G04 #@! TF.FileFunction,Copper,L1,Top*
G04 #@! TF.FilePolarity,Positive*
%FSLAX46Y46*%
G04 Gerber Fmt 4.6, Leading zero omitted, Abs format (unit mm)*
G04 Created by KiCad (PCBNEW (5.1.5)-3) date 2019-12-27 21:02:48*
%MOMM*%
%LPD*%
G04 APERTURE LIST*
%ADD10O,1.700000X1.700000*%
%ADD11R,1.700000X1.700000*%
%ADD12C,0.800000*%
%ADD13C,0.250000*%
%ADD14C,0.254000*%
G04 APERTURE END LIST*
D10*
X46990000Y-64770000D03*
X44450000Y-67310000D03*
X44450000Y-52070000D03*
X46990000Y-52070000D03*
X46990000Y-67310000D03*
X44450000Y-64770000D03*
X46990000Y-69850000D03*
D11*
X44450000Y-69850000D03*
D10*
X44450000Y-41910000D03*
X46990000Y-41910000D03*
X44450000Y-57150000D03*
X46990000Y-57150000D03*
X44450000Y-36830000D03*
X46990000Y-36830000D03*
X44450000Y-54610000D03*
X46990000Y-54610000D03*
X44450000Y-59690000D03*
X46990000Y-59690000D03*
X44450000Y-46990000D03*
X46990000Y-46990000D03*
X44450000Y-24130000D03*
X46990000Y-24130000D03*
X44450000Y-29210000D03*
X46990000Y-29210000D03*
X44450000Y-26670000D03*
X46990000Y-26670000D03*
X44450000Y-49530000D03*
X46990000Y-49530000D03*
X44450000Y-31750000D03*
X46990000Y-31750000D03*
X44450000Y-62230000D03*
X46990000Y-62230000D03*
X44450000Y-34290000D03*
X46990000Y-34290000D03*
X44450000Y-44450000D03*
X46990000Y-44450000D03*
X44450000Y-39370000D03*
X46990000Y-39370000D03*
X44450000Y-21590000D03*
X46990000Y-21590000D03*
D11*
X57150000Y-30480000D03*
D10*
X57150000Y-27940000D03*
X57150000Y-25400000D03*
X57150000Y-22860000D03*
X57150000Y-20320000D03*
X57150000Y-17780000D03*
X57150000Y-15240000D03*
D11*
X57150000Y-55880000D03*
D10*
X57150000Y-53340000D03*
X57150000Y-50800000D03*
X57150000Y-48260000D03*
X57150000Y-45720000D03*
X57150000Y-43180000D03*
X57150000Y-40640000D03*
X57150000Y-38100000D03*
D11*
X57150000Y-85090000D03*
D10*
X57150000Y-82550000D03*
X57150000Y-80010000D03*
X57150000Y-77470000D03*
X57150000Y-74930000D03*
X57150000Y-72390000D03*
X57150000Y-69850000D03*
X57150000Y-67310000D03*
X57150000Y-64770000D03*
D12*
X54610000Y-22860000D03*
X54610000Y-48260000D03*
D13*
X43274999Y-68485001D02*
X43600001Y-68159999D01*
X43600001Y-68159999D02*
X44450000Y-67310000D01*
X43274999Y-70960001D02*
X43274999Y-68485001D01*
X43339999Y-71025001D02*
X43274999Y-70960001D01*
X45625001Y-71025001D02*
X43339999Y-71025001D01*
X57150000Y-82550000D02*
X45625001Y-71025001D01*
X57999999Y-44870001D02*
X57150000Y-45720000D01*
X58325001Y-18955001D02*
X58325001Y-44544999D01*
X58325001Y-44544999D02*
X57999999Y-44870001D01*
X57150000Y-17780000D02*
X58325001Y-18955001D01*
X58325001Y-81374999D02*
X57999999Y-81700001D01*
X58325001Y-46895001D02*
X58325001Y-81374999D01*
X57999999Y-81700001D02*
X57150000Y-82550000D01*
X57150000Y-45720000D02*
X58325001Y-46895001D01*
X46990000Y-69850000D02*
X46990000Y-67310000D01*
X57150000Y-55880000D02*
X57150000Y-64770000D01*
X56050000Y-30480000D02*
X57150000Y-30480000D01*
X54610000Y-67310000D02*
X57150000Y-64770000D01*
X46990000Y-67310000D02*
X54610000Y-67310000D01*
X54695000Y-31835000D02*
X56050000Y-30480000D01*
X54610000Y-31920000D02*
X54695000Y-31835000D01*
X57150000Y-55880000D02*
X56050000Y-55880000D01*
X53884999Y-32645001D02*
X54695000Y-31835000D01*
X56050000Y-55880000D02*
X53884999Y-53714999D01*
X53884999Y-53714999D02*
X53884999Y-32645001D01*
X43600001Y-65619999D02*
X44450000Y-64770000D01*
X42824990Y-66395010D02*
X43600001Y-65619999D01*
X53573998Y-85090000D02*
X42824990Y-74340992D01*
X42824990Y-74340992D02*
X42824990Y-66395010D01*
X57150000Y-85090000D02*
X53573998Y-85090000D01*
X57150000Y-48260000D02*
X54610000Y-48260000D01*
X54610000Y-22860000D02*
X57150000Y-22860000D01*
D14*
G36*
X60833000Y-87503000D02*
G01*
X12827000Y-87503000D01*
X12827000Y-74522032D01*
X20710000Y-74522032D01*
X20710000Y-74917968D01*
X20787243Y-75306296D01*
X20938761Y-75672092D01*
X21158731Y-76001301D01*
X21438699Y-76281269D01*
X21767908Y-76501239D01*
X22133704Y-76652757D01*
X22522032Y-76730000D01*
X22917968Y-76730000D01*
X23306296Y-76652757D01*
X23672092Y-76501239D01*
X24001301Y-76281269D01*
X24281269Y-76001301D01*
X24501239Y-75672092D01*
X24652757Y-75306296D01*
X24730000Y-74917968D01*
X24730000Y-74522032D01*
X24652757Y-74133704D01*
X24501239Y-73767908D01*
X24281269Y-73438699D01*
X24001301Y-73158731D01*
X23672092Y-72938761D01*
X23306296Y-72787243D01*
X22917968Y-72710000D01*
X22522032Y-72710000D01*
X22133704Y-72787243D01*
X21767908Y-72938761D01*
X21438699Y-73158731D01*
X21158731Y-73438699D01*
X20938761Y-73767908D01*
X20787243Y-74133704D01*
X20710000Y-74522032D01*
X12827000Y-74522032D01*
X12827000Y-66395010D01*
X42061314Y-66395010D01*
X42064991Y-66432342D01*
X42064990Y-74303670D01*
X42061314Y-74340992D01*
X42064990Y-74378314D01*
X42064990Y-74378324D01*
X42075987Y-74489977D01*
X42085711Y-74522032D01*
X42119444Y-74633238D01*
X42190016Y-74765268D01*
X42205176Y-74783740D01*
X42284989Y-74880993D01*
X42313993Y-74904796D01*
X53010199Y-85601003D01*
X53033997Y-85630001D01*
X53062995Y-85653799D01*
X53149721Y-85724974D01*
X53281751Y-85795546D01*
X53425012Y-85839003D01*
X53536665Y-85850000D01*
X53536675Y-85850000D01*
X53573998Y-85853676D01*
X53611321Y-85850000D01*
X55661928Y-85850000D01*
X55661928Y-85940000D01*
X55674188Y-86064482D01*
X55710498Y-86184180D01*
X55769463Y-86294494D01*
X55848815Y-86391185D01*
X55945506Y-86470537D01*
X56055820Y-86529502D01*
X56175518Y-86565812D01*
X56300000Y-86578072D01*
X58000000Y-86578072D01*
X58124482Y-86565812D01*
X58244180Y-86529502D01*
X58354494Y-86470537D01*
X58451185Y-86391185D01*
X58530537Y-86294494D01*
X58589502Y-86184180D01*
X58625812Y-86064482D01*
X58638072Y-85940000D01*
X58638072Y-84240000D01*
X58625812Y-84115518D01*
X58589502Y-83995820D01*
X58530537Y-83885506D01*
X58451185Y-83788815D01*
X58354494Y-83709463D01*
X58244180Y-83650498D01*
X58171620Y-83628487D01*
X58303475Y-83496632D01*
X58465990Y-83253411D01*
X58577932Y-82983158D01*
X58635000Y-82696260D01*
X58635000Y-82403740D01*
X58591209Y-82183592D01*
X58835998Y-81938803D01*
X58865002Y-81915000D01*
X58959975Y-81799275D01*
X59030547Y-81667246D01*
X59074004Y-81523985D01*
X59085001Y-81412332D01*
X59085001Y-81412323D01*
X59088677Y-81375000D01*
X59085001Y-81337677D01*
X59085001Y-46932323D01*
X59088677Y-46895000D01*
X59085001Y-46857677D01*
X59085001Y-46857668D01*
X59074004Y-46746015D01*
X59030547Y-46602754D01*
X58959975Y-46470725D01*
X58865002Y-46355000D01*
X58836005Y-46331203D01*
X58591210Y-46086408D01*
X58635000Y-45866260D01*
X58635000Y-45573740D01*
X58591209Y-45353592D01*
X58835998Y-45108803D01*
X58865002Y-45085000D01*
X58959975Y-44969275D01*
X59030547Y-44837246D01*
X59074004Y-44693985D01*
X59085001Y-44582332D01*
X59085001Y-44582323D01*
X59088677Y-44545000D01*
X59085001Y-44507677D01*
X59085001Y-18992323D01*
X59088677Y-18955000D01*
X59085001Y-18917677D01*
X59085001Y-18917668D01*
X59074004Y-18806015D01*
X59030547Y-18662754D01*
X58959975Y-18530725D01*
X58865002Y-18415000D01*
X58836005Y-18391203D01*
X58591210Y-18146408D01*
X58635000Y-17926260D01*
X58635000Y-17633740D01*
X58577932Y-17346842D01*
X58465990Y-17076589D01*
X58303475Y-16833368D01*
X58096632Y-16626525D01*
X57922240Y-16510000D01*
X58096632Y-16393475D01*
X58303475Y-16186632D01*
X58465990Y-15943411D01*
X58577932Y-15673158D01*
X58635000Y-15386260D01*
X58635000Y-15093740D01*
X58577932Y-14806842D01*
X58465990Y-14536589D01*
X58303475Y-14293368D01*
X58096632Y-14086525D01*
X57853411Y-13924010D01*
X57583158Y-13812068D01*
X57296260Y-13755000D01*
X57003740Y-13755000D01*
X56716842Y-13812068D01*
X56446589Y-13924010D01*
X56203368Y-14086525D01*
X55996525Y-14293368D01*
X55834010Y-14536589D01*
X55722068Y-14806842D01*
X55665000Y-15093740D01*
X55665000Y-15386260D01*
X55722068Y-15673158D01*
X55834010Y-15943411D01*
X55996525Y-16186632D01*
X56203368Y-16393475D01*
X56377760Y-16510000D01*
X56203368Y-16626525D01*
X55996525Y-16833368D01*
X55834010Y-17076589D01*
X55722068Y-17346842D01*
X55665000Y-17633740D01*
X55665000Y-17926260D01*
X55722068Y-18213158D01*
X55834010Y-18483411D01*
X55996525Y-18726632D01*
X56203368Y-18933475D01*
X56377760Y-19050000D01*
X56203368Y-19166525D01*
X55996525Y-19373368D01*
X55834010Y-19616589D01*
X55722068Y-19886842D01*
X55665000Y-20173740D01*
X55665000Y-20466260D01*
X55722068Y-20753158D01*
X55834010Y-21023411D01*
X55996525Y-21266632D01*
X56203368Y-21473475D01*
X56377760Y-21590000D01*
X56203368Y-21706525D01*
X55996525Y-21913368D01*
X55871822Y-22100000D01*
X55313711Y-22100000D01*
X55269774Y-22056063D01*
X55100256Y-21942795D01*
X54911898Y-21864774D01*
X54711939Y-21825000D01*
X54508061Y-21825000D01*
X54308102Y-21864774D01*
X54119744Y-21942795D01*
X53950226Y-22056063D01*
X53806063Y-22200226D01*
X53692795Y-22369744D01*
X53614774Y-22558102D01*
X53575000Y-22758061D01*
X53575000Y-22961939D01*
X53614774Y-23161898D01*
X53692795Y-23350256D01*
X53806063Y-23519774D01*
X53950226Y-23663937D01*
X54119744Y-23777205D01*
X54308102Y-23855226D01*
X54508061Y-23895000D01*
X54711939Y-23895000D01*
X54911898Y-23855226D01*
X55100256Y-23777205D01*
X55269774Y-23663937D01*
X55313711Y-23620000D01*
X55871822Y-23620000D01*
X55996525Y-23806632D01*
X56203368Y-24013475D01*
X56385534Y-24135195D01*
X56268645Y-24204822D01*
X56052412Y-24399731D01*
X55878359Y-24633080D01*
X55753175Y-24895901D01*
X55708524Y-25043110D01*
X55829845Y-25273000D01*
X57023000Y-25273000D01*
X57023000Y-25253000D01*
X57277000Y-25253000D01*
X57277000Y-25273000D01*
X57297000Y-25273000D01*
X57297000Y-25527000D01*
X57277000Y-25527000D01*
X57277000Y-25547000D01*
X57023000Y-25547000D01*
X57023000Y-25527000D01*
X55829845Y-25527000D01*
X55708524Y-25756890D01*
X55753175Y-25904099D01*
X55878359Y-26166920D01*
X56052412Y-26400269D01*
X56268645Y-26595178D01*
X56385534Y-26664805D01*
X56203368Y-26786525D01*
X55996525Y-26993368D01*
X55834010Y-27236589D01*
X55722068Y-27506842D01*
X55665000Y-27793740D01*
X55665000Y-28086260D01*
X55722068Y-28373158D01*
X55834010Y-28643411D01*
X55996525Y-28886632D01*
X56128380Y-29018487D01*
X56055820Y-29040498D01*
X55945506Y-29099463D01*
X55848815Y-29178815D01*
X55769463Y-29275506D01*
X55710498Y-29385820D01*
X55674188Y-29505518D01*
X55661928Y-29630000D01*
X55661928Y-29825674D01*
X55625724Y-29845026D01*
X55625722Y-29845027D01*
X55625723Y-29845027D01*
X55538996Y-29916201D01*
X55538992Y-29916205D01*
X55509999Y-29939999D01*
X55486205Y-29968992D01*
X54184007Y-31271192D01*
X54183996Y-31271201D01*
X53373996Y-32081202D01*
X53344999Y-32105000D01*
X53321201Y-32133998D01*
X53321200Y-32133999D01*
X53250025Y-32220725D01*
X53179453Y-32352755D01*
X53135997Y-32496016D01*
X53121323Y-32645001D01*
X53125000Y-32682334D01*
X53124999Y-53677677D01*
X53121323Y-53714999D01*
X53124999Y-53752321D01*
X53124999Y-53752331D01*
X53135996Y-53863984D01*
X53179453Y-54007245D01*
X53250025Y-54139275D01*
X53280856Y-54176842D01*
X53344998Y-54255000D01*
X53374002Y-54278803D01*
X55486201Y-56391003D01*
X55509999Y-56420001D01*
X55625724Y-56514974D01*
X55661928Y-56534326D01*
X55661928Y-56730000D01*
X55674188Y-56854482D01*
X55710498Y-56974180D01*
X55769463Y-57084494D01*
X55848815Y-57181185D01*
X55945506Y-57260537D01*
X56055820Y-57319502D01*
X56175518Y-57355812D01*
X56300000Y-57368072D01*
X56390000Y-57368072D01*
X56390001Y-63491821D01*
X56203368Y-63616525D01*
X55996525Y-63823368D01*
X55834010Y-64066589D01*
X55722068Y-64336842D01*
X55665000Y-64623740D01*
X55665000Y-64916260D01*
X55708790Y-65136407D01*
X54295199Y-66550000D01*
X48268178Y-66550000D01*
X48143475Y-66363368D01*
X47936632Y-66156525D01*
X47754466Y-66034805D01*
X47871355Y-65965178D01*
X48087588Y-65770269D01*
X48261641Y-65536920D01*
X48386825Y-65274099D01*
X48431476Y-65126890D01*
X48310155Y-64897000D01*
X47117000Y-64897000D01*
X47117000Y-64917000D01*
X46863000Y-64917000D01*
X46863000Y-64897000D01*
X46843000Y-64897000D01*
X46843000Y-64643000D01*
X46863000Y-64643000D01*
X46863000Y-64623000D01*
X47117000Y-64623000D01*
X47117000Y-64643000D01*
X48310155Y-64643000D01*
X48431476Y-64413110D01*
X48386825Y-64265901D01*
X48261641Y-64003080D01*
X48087588Y-63769731D01*
X47871355Y-63574822D01*
X47754466Y-63505195D01*
X47936632Y-63383475D01*
X48143475Y-63176632D01*
X48305990Y-62933411D01*
X48417932Y-62663158D01*
X48475000Y-62376260D01*
X48475000Y-62083740D01*
X48417932Y-61796842D01*
X48305990Y-61526589D01*
X48143475Y-61283368D01*
X47936632Y-61076525D01*
X47762240Y-60960000D01*
X47936632Y-60843475D01*
X48143475Y-60636632D01*
X48305990Y-60393411D01*
X48417932Y-60123158D01*
X48475000Y-59836260D01*
X48475000Y-59543740D01*
X48417932Y-59256842D01*
X48305990Y-58986589D01*
X48143475Y-58743368D01*
X47936632Y-58536525D01*
X47762240Y-58420000D01*
X47936632Y-58303475D01*
X48143475Y-58096632D01*
X48305990Y-57853411D01*
X48417932Y-57583158D01*
X48475000Y-57296260D01*
X48475000Y-57003740D01*
X48417932Y-56716842D01*
X48305990Y-56446589D01*
X48143475Y-56203368D01*
X47936632Y-55996525D01*
X47754466Y-55874805D01*
X47871355Y-55805178D01*
X48087588Y-55610269D01*
X48261641Y-55376920D01*
X48386825Y-55114099D01*
X48431476Y-54966890D01*
X48310155Y-54737000D01*
X47117000Y-54737000D01*
X47117000Y-54757000D01*
X46863000Y-54757000D01*
X46863000Y-54737000D01*
X46843000Y-54737000D01*
X46843000Y-54483000D01*
X46863000Y-54483000D01*
X46863000Y-54463000D01*
X47117000Y-54463000D01*
X47117000Y-54483000D01*
X48310155Y-54483000D01*
X48431476Y-54253110D01*
X48386825Y-54105901D01*
X48261641Y-53843080D01*
X48087588Y-53609731D01*
X47871355Y-53414822D01*
X47754466Y-53345195D01*
X47936632Y-53223475D01*
X48143475Y-53016632D01*
X48305990Y-52773411D01*
X48417932Y-52503158D01*
X48475000Y-52216260D01*
X48475000Y-51923740D01*
X48417932Y-51636842D01*
X48305990Y-51366589D01*
X48143475Y-51123368D01*
X47936632Y-50916525D01*
X47762240Y-50800000D01*
X47936632Y-50683475D01*
X48143475Y-50476632D01*
X48305990Y-50233411D01*
X48417932Y-49963158D01*
X48475000Y-49676260D01*
X48475000Y-49383740D01*
X48417932Y-49096842D01*
X48305990Y-48826589D01*
X48143475Y-48583368D01*
X47936632Y-48376525D01*
X47754466Y-48254805D01*
X47871355Y-48185178D01*
X48087588Y-47990269D01*
X48261641Y-47756920D01*
X48386825Y-47494099D01*
X48431476Y-47346890D01*
X48310155Y-47117000D01*
X47117000Y-47117000D01*
X47117000Y-47137000D01*
X46863000Y-47137000D01*
X46863000Y-47117000D01*
X46843000Y-47117000D01*
X46843000Y-46863000D01*
X46863000Y-46863000D01*
X46863000Y-46843000D01*
X47117000Y-46843000D01*
X47117000Y-46863000D01*
X48310155Y-46863000D01*
X48431476Y-46633110D01*
X48386825Y-46485901D01*
X48261641Y-46223080D01*
X48087588Y-45989731D01*
X47871355Y-45794822D01*
X47754466Y-45725195D01*
X47936632Y-45603475D01*
X48143475Y-45396632D01*
X48305990Y-45153411D01*
X48417932Y-44883158D01*
X48475000Y-44596260D01*
X48475000Y-44303740D01*
X48417932Y-44016842D01*
X48305990Y-43746589D01*
X48143475Y-43503368D01*
X47936632Y-43296525D01*
X47762240Y-43180000D01*
X47936632Y-43063475D01*
X48143475Y-42856632D01*
X48305990Y-42613411D01*
X48417932Y-42343158D01*
X48475000Y-42056260D01*
X48475000Y-41763740D01*
X48417932Y-41476842D01*
X48305990Y-41206589D01*
X48143475Y-40963368D01*
X47936632Y-40756525D01*
X47762240Y-40640000D01*
X47936632Y-40523475D01*
X48143475Y-40316632D01*
X48305990Y-40073411D01*
X48417932Y-39803158D01*
X48475000Y-39516260D01*
X48475000Y-39223740D01*
X48417932Y-38936842D01*
X48305990Y-38666589D01*
X48143475Y-38423368D01*
X47936632Y-38216525D01*
X47762240Y-38100000D01*
X47936632Y-37983475D01*
X48143475Y-37776632D01*
X48305990Y-37533411D01*
X48417932Y-37263158D01*
X48475000Y-36976260D01*
X48475000Y-36683740D01*
X48417932Y-36396842D01*
X48305990Y-36126589D01*
X48143475Y-35883368D01*
X47936632Y-35676525D01*
X47754466Y-35554805D01*
X47871355Y-35485178D01*
X48087588Y-35290269D01*
X48261641Y-35056920D01*
X48386825Y-34794099D01*
X48431476Y-34646890D01*
X48310155Y-34417000D01*
X47117000Y-34417000D01*
X47117000Y-34437000D01*
X46863000Y-34437000D01*
X46863000Y-34417000D01*
X46843000Y-34417000D01*
X46843000Y-34163000D01*
X46863000Y-34163000D01*
X46863000Y-34143000D01*
X47117000Y-34143000D01*
X47117000Y-34163000D01*
X48310155Y-34163000D01*
X48431476Y-33933110D01*
X48386825Y-33785901D01*
X48261641Y-33523080D01*
X48087588Y-33289731D01*
X47871355Y-33094822D01*
X47754466Y-33025195D01*
X47936632Y-32903475D01*
X48143475Y-32696632D01*
X48305990Y-32453411D01*
X48417932Y-32183158D01*
X48475000Y-31896260D01*
X48475000Y-31603740D01*
X48417932Y-31316842D01*
X48305990Y-31046589D01*
X48143475Y-30803368D01*
X47936632Y-30596525D01*
X47754466Y-30474805D01*
X47871355Y-30405178D01*
X48087588Y-30210269D01*
X48261641Y-29976920D01*
X48386825Y-29714099D01*
X48431476Y-29566890D01*
X48310155Y-29337000D01*
X47117000Y-29337000D01*
X47117000Y-29357000D01*
X46863000Y-29357000D01*
X46863000Y-29337000D01*
X46843000Y-29337000D01*
X46843000Y-29083000D01*
X46863000Y-29083000D01*
X46863000Y-29063000D01*
X47117000Y-29063000D01*
X47117000Y-29083000D01*
X48310155Y-29083000D01*
X48431476Y-28853110D01*
X48386825Y-28705901D01*
X48261641Y-28443080D01*
X48087588Y-28209731D01*
X47871355Y-28014822D01*
X47754466Y-27945195D01*
X47936632Y-27823475D01*
X48143475Y-27616632D01*
X48305990Y-27373411D01*
X48417932Y-27103158D01*
X48475000Y-26816260D01*
X48475000Y-26523740D01*
X48417932Y-26236842D01*
X48305990Y-25966589D01*
X48143475Y-25723368D01*
X47936632Y-25516525D01*
X47762240Y-25400000D01*
X47936632Y-25283475D01*
X48143475Y-25076632D01*
X48305990Y-24833411D01*
X48417932Y-24563158D01*
X48475000Y-24276260D01*
X48475000Y-23983740D01*
X48417932Y-23696842D01*
X48305990Y-23426589D01*
X48143475Y-23183368D01*
X47936632Y-22976525D01*
X47762240Y-22860000D01*
X47936632Y-22743475D01*
X48143475Y-22536632D01*
X48305990Y-22293411D01*
X48417932Y-22023158D01*
X48475000Y-21736260D01*
X48475000Y-21443740D01*
X48417932Y-21156842D01*
X48305990Y-20886589D01*
X48143475Y-20643368D01*
X47936632Y-20436525D01*
X47693411Y-20274010D01*
X47423158Y-20162068D01*
X47136260Y-20105000D01*
X46843740Y-20105000D01*
X46556842Y-20162068D01*
X46286589Y-20274010D01*
X46043368Y-20436525D01*
X45836525Y-20643368D01*
X45718900Y-20819406D01*
X45547588Y-20589731D01*
X45331355Y-20394822D01*
X45081252Y-20245843D01*
X44806891Y-20148519D01*
X44577000Y-20269186D01*
X44577000Y-21463000D01*
X44597000Y-21463000D01*
X44597000Y-21717000D01*
X44577000Y-21717000D01*
X44577000Y-21737000D01*
X44323000Y-21737000D01*
X44323000Y-21717000D01*
X43129845Y-21717000D01*
X43008524Y-21946890D01*
X43053175Y-22094099D01*
X43178359Y-22356920D01*
X43352412Y-22590269D01*
X43568645Y-22785178D01*
X43685534Y-22854805D01*
X43503368Y-22976525D01*
X43296525Y-23183368D01*
X43134010Y-23426589D01*
X43022068Y-23696842D01*
X42965000Y-23983740D01*
X42965000Y-24276260D01*
X43022068Y-24563158D01*
X43134010Y-24833411D01*
X43296525Y-25076632D01*
X43503368Y-25283475D01*
X43677760Y-25400000D01*
X43503368Y-25516525D01*
X43296525Y-25723368D01*
X43134010Y-25966589D01*
X43022068Y-26236842D01*
X42965000Y-26523740D01*
X42965000Y-26816260D01*
X43022068Y-27103158D01*
X43134010Y-27373411D01*
X43296525Y-27616632D01*
X43503368Y-27823475D01*
X43677760Y-27940000D01*
X43503368Y-28056525D01*
X43296525Y-28263368D01*
X43134010Y-28506589D01*
X43022068Y-28776842D01*
X42965000Y-29063740D01*
X42965000Y-29356260D01*
X43022068Y-29643158D01*
X43134010Y-29913411D01*
X43296525Y-30156632D01*
X43503368Y-30363475D01*
X43677760Y-30480000D01*
X43503368Y-30596525D01*
X43296525Y-30803368D01*
X43134010Y-31046589D01*
X43022068Y-31316842D01*
X42965000Y-31603740D01*
X42965000Y-31896260D01*
X43022068Y-32183158D01*
X43134010Y-32453411D01*
X43296525Y-32696632D01*
X43503368Y-32903475D01*
X43677760Y-33020000D01*
X43503368Y-33136525D01*
X43296525Y-33343368D01*
X43134010Y-33586589D01*
X43022068Y-33856842D01*
X42965000Y-34143740D01*
X42965000Y-34436260D01*
X43022068Y-34723158D01*
X43134010Y-34993411D01*
X43296525Y-35236632D01*
X43503368Y-35443475D01*
X43677760Y-35560000D01*
X43503368Y-35676525D01*
X43296525Y-35883368D01*
X43134010Y-36126589D01*
X43022068Y-36396842D01*
X42965000Y-36683740D01*
X42965000Y-36976260D01*
X43022068Y-37263158D01*
X43134010Y-37533411D01*
X43296525Y-37776632D01*
X43503368Y-37983475D01*
X43685534Y-38105195D01*
X43568645Y-38174822D01*
X43352412Y-38369731D01*
X43178359Y-38603080D01*
X43053175Y-38865901D01*
X43008524Y-39013110D01*
X43129845Y-39243000D01*
X44323000Y-39243000D01*
X44323000Y-39223000D01*
X44577000Y-39223000D01*
X44577000Y-39243000D01*
X44597000Y-39243000D01*
X44597000Y-39497000D01*
X44577000Y-39497000D01*
X44577000Y-39517000D01*
X44323000Y-39517000D01*
X44323000Y-39497000D01*
X43129845Y-39497000D01*
X43008524Y-39726890D01*
X43053175Y-39874099D01*
X43178359Y-40136920D01*
X43352412Y-40370269D01*
X43568645Y-40565178D01*
X43685534Y-40634805D01*
X43503368Y-40756525D01*
X43296525Y-40963368D01*
X43134010Y-41206589D01*
X43022068Y-41476842D01*
X42965000Y-41763740D01*
X42965000Y-42056260D01*
X43022068Y-42343158D01*
X43134010Y-42613411D01*
X43296525Y-42856632D01*
X43503368Y-43063475D01*
X43677760Y-43180000D01*
X43503368Y-43296525D01*
X43296525Y-43503368D01*
X43134010Y-43746589D01*
X43022068Y-44016842D01*
X42965000Y-44303740D01*
X42965000Y-44596260D01*
X43022068Y-44883158D01*
X43134010Y-45153411D01*
X43296525Y-45396632D01*
X43503368Y-45603475D01*
X43677760Y-45720000D01*
X43503368Y-45836525D01*
X43296525Y-46043368D01*
X43134010Y-46286589D01*
X43022068Y-46556842D01*
X42965000Y-46843740D01*
X42965000Y-47136260D01*
X43022068Y-47423158D01*
X43134010Y-47693411D01*
X43296525Y-47936632D01*
X43503368Y-48143475D01*
X43677760Y-48260000D01*
X43503368Y-48376525D01*
X43296525Y-48583368D01*
X43134010Y-48826589D01*
X43022068Y-49096842D01*
X42965000Y-49383740D01*
X42965000Y-49676260D01*
X43022068Y-49963158D01*
X43134010Y-50233411D01*
X43296525Y-50476632D01*
X43503368Y-50683475D01*
X43677760Y-50800000D01*
X43503368Y-50916525D01*
X43296525Y-51123368D01*
X43134010Y-51366589D01*
X43022068Y-51636842D01*
X42965000Y-51923740D01*
X42965000Y-52216260D01*
X43022068Y-52503158D01*
X43134010Y-52773411D01*
X43296525Y-53016632D01*
X43503368Y-53223475D01*
X43677760Y-53340000D01*
X43503368Y-53456525D01*
X43296525Y-53663368D01*
X43134010Y-53906589D01*
X43022068Y-54176842D01*
X42965000Y-54463740D01*
X42965000Y-54756260D01*
X43022068Y-55043158D01*
X43134010Y-55313411D01*
X43296525Y-55556632D01*
X43503368Y-55763475D01*
X43677760Y-55880000D01*
X43503368Y-55996525D01*
X43296525Y-56203368D01*
X43134010Y-56446589D01*
X43022068Y-56716842D01*
X42965000Y-57003740D01*
X42965000Y-57296260D01*
X43022068Y-57583158D01*
X43134010Y-57853411D01*
X43296525Y-58096632D01*
X43503368Y-58303475D01*
X43685534Y-58425195D01*
X43568645Y-58494822D01*
X43352412Y-58689731D01*
X43178359Y-58923080D01*
X43053175Y-59185901D01*
X43008524Y-59333110D01*
X43129845Y-59563000D01*
X44323000Y-59563000D01*
X44323000Y-59543000D01*
X44577000Y-59543000D01*
X44577000Y-59563000D01*
X44597000Y-59563000D01*
X44597000Y-59817000D01*
X44577000Y-59817000D01*
X44577000Y-59837000D01*
X44323000Y-59837000D01*
X44323000Y-59817000D01*
X43129845Y-59817000D01*
X43008524Y-60046890D01*
X43053175Y-60194099D01*
X43178359Y-60456920D01*
X43352412Y-60690269D01*
X43568645Y-60885178D01*
X43685534Y-60954805D01*
X43503368Y-61076525D01*
X43296525Y-61283368D01*
X43134010Y-61526589D01*
X43022068Y-61796842D01*
X42965000Y-62083740D01*
X42965000Y-62376260D01*
X43022068Y-62663158D01*
X43134010Y-62933411D01*
X43296525Y-63176632D01*
X43503368Y-63383475D01*
X43677760Y-63500000D01*
X43503368Y-63616525D01*
X43296525Y-63823368D01*
X43134010Y-64066589D01*
X43022068Y-64336842D01*
X42965000Y-64623740D01*
X42965000Y-64916260D01*
X43008790Y-65136408D01*
X42313988Y-65831211D01*
X42284990Y-65855009D01*
X42261192Y-65884007D01*
X42261191Y-65884008D01*
X42190016Y-65970734D01*
X42119444Y-66102764D01*
X42075988Y-66246025D01*
X42061314Y-66395010D01*
X12827000Y-66395010D01*
X12827000Y-21233110D01*
X43008524Y-21233110D01*
X43129845Y-21463000D01*
X44323000Y-21463000D01*
X44323000Y-20269186D01*
X44093109Y-20148519D01*
X43818748Y-20245843D01*
X43568645Y-20394822D01*
X43352412Y-20589731D01*
X43178359Y-20823080D01*
X43053175Y-21085901D01*
X43008524Y-21233110D01*
X12827000Y-21233110D01*
X12827000Y-16522032D01*
X20710000Y-16522032D01*
X20710000Y-16917968D01*
X20787243Y-17306296D01*
X20938761Y-17672092D01*
X21158731Y-18001301D01*
X21438699Y-18281269D01*
X21767908Y-18501239D01*
X22133704Y-18652757D01*
X22522032Y-18730000D01*
X22917968Y-18730000D01*
X23306296Y-18652757D01*
X23672092Y-18501239D01*
X24001301Y-18281269D01*
X24281269Y-18001301D01*
X24501239Y-17672092D01*
X24652757Y-17306296D01*
X24730000Y-16917968D01*
X24730000Y-16522032D01*
X43710000Y-16522032D01*
X43710000Y-16917968D01*
X43787243Y-17306296D01*
X43938761Y-17672092D01*
X44158731Y-18001301D01*
X44438699Y-18281269D01*
X44767908Y-18501239D01*
X45133704Y-18652757D01*
X45522032Y-18730000D01*
X45917968Y-18730000D01*
X46306296Y-18652757D01*
X46672092Y-18501239D01*
X47001301Y-18281269D01*
X47281269Y-18001301D01*
X47501239Y-17672092D01*
X47652757Y-17306296D01*
X47730000Y-16917968D01*
X47730000Y-16522032D01*
X47652757Y-16133704D01*
X47501239Y-15767908D01*
X47281269Y-15438699D01*
X47001301Y-15158731D01*
X46672092Y-14938761D01*
X46306296Y-14787243D01*
X45917968Y-14710000D01*
X45522032Y-14710000D01*
X45133704Y-14787243D01*
X44767908Y-14938761D01*
X44438699Y-15158731D01*
X44158731Y-15438699D01*
X43938761Y-15767908D01*
X43787243Y-16133704D01*
X43710000Y-16522032D01*
X24730000Y-16522032D01*
X24652757Y-16133704D01*
X24501239Y-15767908D01*
X24281269Y-15438699D01*
X24001301Y-15158731D01*
X23672092Y-14938761D01*
X23306296Y-14787243D01*
X22917968Y-14710000D01*
X22522032Y-14710000D01*
X22133704Y-14787243D01*
X21767908Y-14938761D01*
X21438699Y-15158731D01*
X21158731Y-15438699D01*
X20938761Y-15767908D01*
X20787243Y-16133704D01*
X20710000Y-16522032D01*
X12827000Y-16522032D01*
X12827000Y-10287000D01*
X60833000Y-10287000D01*
X60833000Y-87503000D01*
G37*
X60833000Y-87503000D02*
X12827000Y-87503000D01*
X12827000Y-74522032D01*
X20710000Y-74522032D01*
X20710000Y-74917968D01*
X20787243Y-75306296D01*
X20938761Y-75672092D01*
X21158731Y-76001301D01*
X21438699Y-76281269D01*
X21767908Y-76501239D01*
X22133704Y-76652757D01*
X22522032Y-76730000D01*
X22917968Y-76730000D01*
X23306296Y-76652757D01*
X23672092Y-76501239D01*
X24001301Y-76281269D01*
X24281269Y-76001301D01*
X24501239Y-75672092D01*
X24652757Y-75306296D01*
X24730000Y-74917968D01*
X24730000Y-74522032D01*
X24652757Y-74133704D01*
X24501239Y-73767908D01*
X24281269Y-73438699D01*
X24001301Y-73158731D01*
X23672092Y-72938761D01*
X23306296Y-72787243D01*
X22917968Y-72710000D01*
X22522032Y-72710000D01*
X22133704Y-72787243D01*
X21767908Y-72938761D01*
X21438699Y-73158731D01*
X21158731Y-73438699D01*
X20938761Y-73767908D01*
X20787243Y-74133704D01*
X20710000Y-74522032D01*
X12827000Y-74522032D01*
X12827000Y-66395010D01*
X42061314Y-66395010D01*
X42064991Y-66432342D01*
X42064990Y-74303670D01*
X42061314Y-74340992D01*
X42064990Y-74378314D01*
X42064990Y-74378324D01*
X42075987Y-74489977D01*
X42085711Y-74522032D01*
X42119444Y-74633238D01*
X42190016Y-74765268D01*
X42205176Y-74783740D01*
X42284989Y-74880993D01*
X42313993Y-74904796D01*
X53010199Y-85601003D01*
X53033997Y-85630001D01*
X53062995Y-85653799D01*
X53149721Y-85724974D01*
X53281751Y-85795546D01*
X53425012Y-85839003D01*
X53536665Y-85850000D01*
X53536675Y-85850000D01*
X53573998Y-85853676D01*
X53611321Y-85850000D01*
X55661928Y-85850000D01*
X55661928Y-85940000D01*
X55674188Y-86064482D01*
X55710498Y-86184180D01*
X55769463Y-86294494D01*
X55848815Y-86391185D01*
X55945506Y-86470537D01*
X56055820Y-86529502D01*
X56175518Y-86565812D01*
X56300000Y-86578072D01*
X58000000Y-86578072D01*
X58124482Y-86565812D01*
X58244180Y-86529502D01*
X58354494Y-86470537D01*
X58451185Y-86391185D01*
X58530537Y-86294494D01*
X58589502Y-86184180D01*
X58625812Y-86064482D01*
X58638072Y-85940000D01*
X58638072Y-84240000D01*
X58625812Y-84115518D01*
X58589502Y-83995820D01*
X58530537Y-83885506D01*
X58451185Y-83788815D01*
X58354494Y-83709463D01*
X58244180Y-83650498D01*
X58171620Y-83628487D01*
X58303475Y-83496632D01*
X58465990Y-83253411D01*
X58577932Y-82983158D01*
X58635000Y-82696260D01*
X58635000Y-82403740D01*
X58591209Y-82183592D01*
X58835998Y-81938803D01*
X58865002Y-81915000D01*
X58959975Y-81799275D01*
X59030547Y-81667246D01*
X59074004Y-81523985D01*
X59085001Y-81412332D01*
X59085001Y-81412323D01*
X59088677Y-81375000D01*
X59085001Y-81337677D01*
X59085001Y-46932323D01*
X59088677Y-46895000D01*
X59085001Y-46857677D01*
X59085001Y-46857668D01*
X59074004Y-46746015D01*
X59030547Y-46602754D01*
X58959975Y-46470725D01*
X58865002Y-46355000D01*
X58836005Y-46331203D01*
X58591210Y-46086408D01*
X58635000Y-45866260D01*
X58635000Y-45573740D01*
X58591209Y-45353592D01*
X58835998Y-45108803D01*
X58865002Y-45085000D01*
X58959975Y-44969275D01*
X59030547Y-44837246D01*
X59074004Y-44693985D01*
X59085001Y-44582332D01*
X59085001Y-44582323D01*
X59088677Y-44545000D01*
X59085001Y-44507677D01*
X59085001Y-18992323D01*
X59088677Y-18955000D01*
X59085001Y-18917677D01*
X59085001Y-18917668D01*
X59074004Y-18806015D01*
X59030547Y-18662754D01*
X58959975Y-18530725D01*
X58865002Y-18415000D01*
X58836005Y-18391203D01*
X58591210Y-18146408D01*
X58635000Y-17926260D01*
X58635000Y-17633740D01*
X58577932Y-17346842D01*
X58465990Y-17076589D01*
X58303475Y-16833368D01*
X58096632Y-16626525D01*
X57922240Y-16510000D01*
X58096632Y-16393475D01*
X58303475Y-16186632D01*
X58465990Y-15943411D01*
X58577932Y-15673158D01*
X58635000Y-15386260D01*
X58635000Y-15093740D01*
X58577932Y-14806842D01*
X58465990Y-14536589D01*
X58303475Y-14293368D01*
X58096632Y-14086525D01*
X57853411Y-13924010D01*
X57583158Y-13812068D01*
X57296260Y-13755000D01*
X57003740Y-13755000D01*
X56716842Y-13812068D01*
X56446589Y-13924010D01*
X56203368Y-14086525D01*
X55996525Y-14293368D01*
X55834010Y-14536589D01*
X55722068Y-14806842D01*
X55665000Y-15093740D01*
X55665000Y-15386260D01*
X55722068Y-15673158D01*
X55834010Y-15943411D01*
X55996525Y-16186632D01*
X56203368Y-16393475D01*
X56377760Y-16510000D01*
X56203368Y-16626525D01*
X55996525Y-16833368D01*
X55834010Y-17076589D01*
X55722068Y-17346842D01*
X55665000Y-17633740D01*
X55665000Y-17926260D01*
X55722068Y-18213158D01*
X55834010Y-18483411D01*
X55996525Y-18726632D01*
X56203368Y-18933475D01*
X56377760Y-19050000D01*
X56203368Y-19166525D01*
X55996525Y-19373368D01*
X55834010Y-19616589D01*
X55722068Y-19886842D01*
X55665000Y-20173740D01*
X55665000Y-20466260D01*
X55722068Y-20753158D01*
X55834010Y-21023411D01*
X55996525Y-21266632D01*
X56203368Y-21473475D01*
X56377760Y-21590000D01*
X56203368Y-21706525D01*
X55996525Y-21913368D01*
X55871822Y-22100000D01*
X55313711Y-22100000D01*
X55269774Y-22056063D01*
X55100256Y-21942795D01*
X54911898Y-21864774D01*
X54711939Y-21825000D01*
X54508061Y-21825000D01*
X54308102Y-21864774D01*
X54119744Y-21942795D01*
X53950226Y-22056063D01*
X53806063Y-22200226D01*
X53692795Y-22369744D01*
X53614774Y-22558102D01*
X53575000Y-22758061D01*
X53575000Y-22961939D01*
X53614774Y-23161898D01*
X53692795Y-23350256D01*
X53806063Y-23519774D01*
X53950226Y-23663937D01*
X54119744Y-23777205D01*
X54308102Y-23855226D01*
X54508061Y-23895000D01*
X54711939Y-23895000D01*
X54911898Y-23855226D01*
X55100256Y-23777205D01*
X55269774Y-23663937D01*
X55313711Y-23620000D01*
X55871822Y-23620000D01*
X55996525Y-23806632D01*
X56203368Y-24013475D01*
X56385534Y-24135195D01*
X56268645Y-24204822D01*
X56052412Y-24399731D01*
X55878359Y-24633080D01*
X55753175Y-24895901D01*
X55708524Y-25043110D01*
X55829845Y-25273000D01*
X57023000Y-25273000D01*
X57023000Y-25253000D01*
X57277000Y-25253000D01*
X57277000Y-25273000D01*
X57297000Y-25273000D01*
X57297000Y-25527000D01*
X57277000Y-25527000D01*
X57277000Y-25547000D01*
X57023000Y-25547000D01*
X57023000Y-25527000D01*
X55829845Y-25527000D01*
X55708524Y-25756890D01*
X55753175Y-25904099D01*
X55878359Y-26166920D01*
X56052412Y-26400269D01*
X56268645Y-26595178D01*
X56385534Y-26664805D01*
X56203368Y-26786525D01*
X55996525Y-26993368D01*
X55834010Y-27236589D01*
X55722068Y-27506842D01*
X55665000Y-27793740D01*
X55665000Y-28086260D01*
X55722068Y-28373158D01*
X55834010Y-28643411D01*
X55996525Y-28886632D01*
X56128380Y-29018487D01*
X56055820Y-29040498D01*
X55945506Y-29099463D01*
X55848815Y-29178815D01*
X55769463Y-29275506D01*
X55710498Y-29385820D01*
X55674188Y-29505518D01*
X55661928Y-29630000D01*
X55661928Y-29825674D01*
X55625724Y-29845026D01*
X55625722Y-29845027D01*
X55625723Y-29845027D01*
X55538996Y-29916201D01*
X55538992Y-29916205D01*
X55509999Y-29939999D01*
X55486205Y-29968992D01*
X54184007Y-31271192D01*
X54183996Y-31271201D01*
X53373996Y-32081202D01*
X53344999Y-32105000D01*
X53321201Y-32133998D01*
X53321200Y-32133999D01*
X53250025Y-32220725D01*
X53179453Y-32352755D01*
X53135997Y-32496016D01*
X53121323Y-32645001D01*
X53125000Y-32682334D01*
X53124999Y-53677677D01*
X53121323Y-53714999D01*
X53124999Y-53752321D01*
X53124999Y-53752331D01*
X53135996Y-53863984D01*
X53179453Y-54007245D01*
X53250025Y-54139275D01*
X53280856Y-54176842D01*
X53344998Y-54255000D01*
X53374002Y-54278803D01*
X55486201Y-56391003D01*
X55509999Y-56420001D01*
X55625724Y-56514974D01*
X55661928Y-56534326D01*
X55661928Y-56730000D01*
X55674188Y-56854482D01*
X55710498Y-56974180D01*
X55769463Y-57084494D01*
X55848815Y-57181185D01*
X55945506Y-57260537D01*
X56055820Y-57319502D01*
X56175518Y-57355812D01*
X56300000Y-57368072D01*
X56390000Y-57368072D01*
X56390001Y-63491821D01*
X56203368Y-63616525D01*
X55996525Y-63823368D01*
X55834010Y-64066589D01*
X55722068Y-64336842D01*
X55665000Y-64623740D01*
X55665000Y-64916260D01*
X55708790Y-65136407D01*
X54295199Y-66550000D01*
X48268178Y-66550000D01*
X48143475Y-66363368D01*
X47936632Y-66156525D01*
X47754466Y-66034805D01*
X47871355Y-65965178D01*
X48087588Y-65770269D01*
X48261641Y-65536920D01*
X48386825Y-65274099D01*
X48431476Y-65126890D01*
X48310155Y-64897000D01*
X47117000Y-64897000D01*
X47117000Y-64917000D01*
X46863000Y-64917000D01*
X46863000Y-64897000D01*
X46843000Y-64897000D01*
X46843000Y-64643000D01*
X46863000Y-64643000D01*
X46863000Y-64623000D01*
X47117000Y-64623000D01*
X47117000Y-64643000D01*
X48310155Y-64643000D01*
X48431476Y-64413110D01*
X48386825Y-64265901D01*
X48261641Y-64003080D01*
X48087588Y-63769731D01*
X47871355Y-63574822D01*
X47754466Y-63505195D01*
X47936632Y-63383475D01*
X48143475Y-63176632D01*
X48305990Y-62933411D01*
X48417932Y-62663158D01*
X48475000Y-62376260D01*
X48475000Y-62083740D01*
X48417932Y-61796842D01*
X48305990Y-61526589D01*
X48143475Y-61283368D01*
X47936632Y-61076525D01*
X47762240Y-60960000D01*
X47936632Y-60843475D01*
X48143475Y-60636632D01*
X48305990Y-60393411D01*
X48417932Y-60123158D01*
X48475000Y-59836260D01*
X48475000Y-59543740D01*
X48417932Y-59256842D01*
X48305990Y-58986589D01*
X48143475Y-58743368D01*
X47936632Y-58536525D01*
X47762240Y-58420000D01*
X47936632Y-58303475D01*
X48143475Y-58096632D01*
X48305990Y-57853411D01*
X48417932Y-57583158D01*
X48475000Y-57296260D01*
X48475000Y-57003740D01*
X48417932Y-56716842D01*
X48305990Y-56446589D01*
X48143475Y-56203368D01*
X47936632Y-55996525D01*
X47754466Y-55874805D01*
X47871355Y-55805178D01*
X48087588Y-55610269D01*
X48261641Y-55376920D01*
X48386825Y-55114099D01*
X48431476Y-54966890D01*
X48310155Y-54737000D01*
X47117000Y-54737000D01*
X47117000Y-54757000D01*
X46863000Y-54757000D01*
X46863000Y-54737000D01*
X46843000Y-54737000D01*
X46843000Y-54483000D01*
X46863000Y-54483000D01*
X46863000Y-54463000D01*
X47117000Y-54463000D01*
X47117000Y-54483000D01*
X48310155Y-54483000D01*
X48431476Y-54253110D01*
X48386825Y-54105901D01*
X48261641Y-53843080D01*
X48087588Y-53609731D01*
X47871355Y-53414822D01*
X47754466Y-53345195D01*
X47936632Y-53223475D01*
X48143475Y-53016632D01*
X48305990Y-52773411D01*
X48417932Y-52503158D01*
X48475000Y-52216260D01*
X48475000Y-51923740D01*
X48417932Y-51636842D01*
X48305990Y-51366589D01*
X48143475Y-51123368D01*
X47936632Y-50916525D01*
X47762240Y-50800000D01*
X47936632Y-50683475D01*
X48143475Y-50476632D01*
X48305990Y-50233411D01*
X48417932Y-49963158D01*
X48475000Y-49676260D01*
X48475000Y-49383740D01*
X48417932Y-49096842D01*
X48305990Y-48826589D01*
X48143475Y-48583368D01*
X47936632Y-48376525D01*
X47754466Y-48254805D01*
X47871355Y-48185178D01*
X48087588Y-47990269D01*
X48261641Y-47756920D01*
X48386825Y-47494099D01*
X48431476Y-47346890D01*
X48310155Y-47117000D01*
X47117000Y-47117000D01*
X47117000Y-47137000D01*
X46863000Y-47137000D01*
X46863000Y-47117000D01*
X46843000Y-47117000D01*
X46843000Y-46863000D01*
X46863000Y-46863000D01*
X46863000Y-46843000D01*
X47117000Y-46843000D01*
X47117000Y-46863000D01*
X48310155Y-46863000D01*
X48431476Y-46633110D01*
X48386825Y-46485901D01*
X48261641Y-46223080D01*
X48087588Y-45989731D01*
X47871355Y-45794822D01*
X47754466Y-45725195D01*
X47936632Y-45603475D01*
X48143475Y-45396632D01*
X48305990Y-45153411D01*
X48417932Y-44883158D01*
X48475000Y-44596260D01*
X48475000Y-44303740D01*
X48417932Y-44016842D01*
X48305990Y-43746589D01*
X48143475Y-43503368D01*
X47936632Y-43296525D01*
X47762240Y-43180000D01*
X47936632Y-43063475D01*
X48143475Y-42856632D01*
X48305990Y-42613411D01*
X48417932Y-42343158D01*
X48475000Y-42056260D01*
X48475000Y-41763740D01*
X48417932Y-41476842D01*
X48305990Y-41206589D01*
X48143475Y-40963368D01*
X47936632Y-40756525D01*
X47762240Y-40640000D01*
X47936632Y-40523475D01*
X48143475Y-40316632D01*
X48305990Y-40073411D01*
X48417932Y-39803158D01*
X48475000Y-39516260D01*
X48475000Y-39223740D01*
X48417932Y-38936842D01*
X48305990Y-38666589D01*
X48143475Y-38423368D01*
X47936632Y-38216525D01*
X47762240Y-38100000D01*
X47936632Y-37983475D01*
X48143475Y-37776632D01*
X48305990Y-37533411D01*
X48417932Y-37263158D01*
X48475000Y-36976260D01*
X48475000Y-36683740D01*
X48417932Y-36396842D01*
X48305990Y-36126589D01*
X48143475Y-35883368D01*
X47936632Y-35676525D01*
X47754466Y-35554805D01*
X47871355Y-35485178D01*
X48087588Y-35290269D01*
X48261641Y-35056920D01*
X48386825Y-34794099D01*
X48431476Y-34646890D01*
X48310155Y-34417000D01*
X47117000Y-34417000D01*
X47117000Y-34437000D01*
X46863000Y-34437000D01*
X46863000Y-34417000D01*
X46843000Y-34417000D01*
X46843000Y-34163000D01*
X46863000Y-34163000D01*
X46863000Y-34143000D01*
X47117000Y-34143000D01*
X47117000Y-34163000D01*
X48310155Y-34163000D01*
X48431476Y-33933110D01*
X48386825Y-33785901D01*
X48261641Y-33523080D01*
X48087588Y-33289731D01*
X47871355Y-33094822D01*
X47754466Y-33025195D01*
X47936632Y-32903475D01*
X48143475Y-32696632D01*
X48305990Y-32453411D01*
X48417932Y-32183158D01*
X48475000Y-31896260D01*
X48475000Y-31603740D01*
X48417932Y-31316842D01*
X48305990Y-31046589D01*
X48143475Y-30803368D01*
X47936632Y-30596525D01*
X47754466Y-30474805D01*
X47871355Y-30405178D01*
X48087588Y-30210269D01*
X48261641Y-29976920D01*
X48386825Y-29714099D01*
X48431476Y-29566890D01*
X48310155Y-29337000D01*
X47117000Y-29337000D01*
X47117000Y-29357000D01*
X46863000Y-29357000D01*
X46863000Y-29337000D01*
X46843000Y-29337000D01*
X46843000Y-29083000D01*
X46863000Y-29083000D01*
X46863000Y-29063000D01*
X47117000Y-29063000D01*
X47117000Y-29083000D01*
X48310155Y-29083000D01*
X48431476Y-28853110D01*
X48386825Y-28705901D01*
X48261641Y-28443080D01*
X48087588Y-28209731D01*
X47871355Y-28014822D01*
X47754466Y-27945195D01*
X47936632Y-27823475D01*
X48143475Y-27616632D01*
X48305990Y-27373411D01*
X48417932Y-27103158D01*
X48475000Y-26816260D01*
X48475000Y-26523740D01*
X48417932Y-26236842D01*
X48305990Y-25966589D01*
X48143475Y-25723368D01*
X47936632Y-25516525D01*
X47762240Y-25400000D01*
X47936632Y-25283475D01*
X48143475Y-25076632D01*
X48305990Y-24833411D01*
X48417932Y-24563158D01*
X48475000Y-24276260D01*
X48475000Y-23983740D01*
X48417932Y-23696842D01*
X48305990Y-23426589D01*
X48143475Y-23183368D01*
X47936632Y-22976525D01*
X47762240Y-22860000D01*
X47936632Y-22743475D01*
X48143475Y-22536632D01*
X48305990Y-22293411D01*
X48417932Y-22023158D01*
X48475000Y-21736260D01*
X48475000Y-21443740D01*
X48417932Y-21156842D01*
X48305990Y-20886589D01*
X48143475Y-20643368D01*
X47936632Y-20436525D01*
X47693411Y-20274010D01*
X47423158Y-20162068D01*
X47136260Y-20105000D01*
X46843740Y-20105000D01*
X46556842Y-20162068D01*
X46286589Y-20274010D01*
X46043368Y-20436525D01*
X45836525Y-20643368D01*
X45718900Y-20819406D01*
X45547588Y-20589731D01*
X45331355Y-20394822D01*
X45081252Y-20245843D01*
X44806891Y-20148519D01*
X44577000Y-20269186D01*
X44577000Y-21463000D01*
X44597000Y-21463000D01*
X44597000Y-21717000D01*
X44577000Y-21717000D01*
X44577000Y-21737000D01*
X44323000Y-21737000D01*
X44323000Y-21717000D01*
X43129845Y-21717000D01*
X43008524Y-21946890D01*
X43053175Y-22094099D01*
X43178359Y-22356920D01*
X43352412Y-22590269D01*
X43568645Y-22785178D01*
X43685534Y-22854805D01*
X43503368Y-22976525D01*
X43296525Y-23183368D01*
X43134010Y-23426589D01*
X43022068Y-23696842D01*
X42965000Y-23983740D01*
X42965000Y-24276260D01*
X43022068Y-24563158D01*
X43134010Y-24833411D01*
X43296525Y-25076632D01*
X43503368Y-25283475D01*
X43677760Y-25400000D01*
X43503368Y-25516525D01*
X43296525Y-25723368D01*
X43134010Y-25966589D01*
X43022068Y-26236842D01*
X42965000Y-26523740D01*
X42965000Y-26816260D01*
X43022068Y-27103158D01*
X43134010Y-27373411D01*
X43296525Y-27616632D01*
X43503368Y-27823475D01*
X43677760Y-27940000D01*
X43503368Y-28056525D01*
X43296525Y-28263368D01*
X43134010Y-28506589D01*
X43022068Y-28776842D01*
X42965000Y-29063740D01*
X42965000Y-29356260D01*
X43022068Y-29643158D01*
X43134010Y-29913411D01*
X43296525Y-30156632D01*
X43503368Y-30363475D01*
X43677760Y-30480000D01*
X43503368Y-30596525D01*
X43296525Y-30803368D01*
X43134010Y-31046589D01*
X43022068Y-31316842D01*
X42965000Y-31603740D01*
X42965000Y-31896260D01*
X43022068Y-32183158D01*
X43134010Y-32453411D01*
X43296525Y-32696632D01*
X43503368Y-32903475D01*
X43677760Y-33020000D01*
X43503368Y-33136525D01*
X43296525Y-33343368D01*
X43134010Y-33586589D01*
X43022068Y-33856842D01*
X42965000Y-34143740D01*
X42965000Y-34436260D01*
X43022068Y-34723158D01*
X43134010Y-34993411D01*
X43296525Y-35236632D01*
X43503368Y-35443475D01*
X43677760Y-35560000D01*
X43503368Y-35676525D01*
X43296525Y-35883368D01*
X43134010Y-36126589D01*
X43022068Y-36396842D01*
X42965000Y-36683740D01*
X42965000Y-36976260D01*
X43022068Y-37263158D01*
X43134010Y-37533411D01*
X43296525Y-37776632D01*
X43503368Y-37983475D01*
X43685534Y-38105195D01*
X43568645Y-38174822D01*
X43352412Y-38369731D01*
X43178359Y-38603080D01*
X43053175Y-38865901D01*
X43008524Y-39013110D01*
X43129845Y-39243000D01*
X44323000Y-39243000D01*
X44323000Y-39223000D01*
X44577000Y-39223000D01*
X44577000Y-39243000D01*
X44597000Y-39243000D01*
X44597000Y-39497000D01*
X44577000Y-39497000D01*
X44577000Y-39517000D01*
X44323000Y-39517000D01*
X44323000Y-39497000D01*
X43129845Y-39497000D01*
X43008524Y-39726890D01*
X43053175Y-39874099D01*
X43178359Y-40136920D01*
X43352412Y-40370269D01*
X43568645Y-40565178D01*
X43685534Y-40634805D01*
X43503368Y-40756525D01*
X43296525Y-40963368D01*
X43134010Y-41206589D01*
X43022068Y-41476842D01*
X42965000Y-41763740D01*
X42965000Y-42056260D01*
X43022068Y-42343158D01*
X43134010Y-42613411D01*
X43296525Y-42856632D01*
X43503368Y-43063475D01*
X43677760Y-43180000D01*
X43503368Y-43296525D01*
X43296525Y-43503368D01*
X43134010Y-43746589D01*
X43022068Y-44016842D01*
X42965000Y-44303740D01*
X42965000Y-44596260D01*
X43022068Y-44883158D01*
X43134010Y-45153411D01*
X43296525Y-45396632D01*
X43503368Y-45603475D01*
X43677760Y-45720000D01*
X43503368Y-45836525D01*
X43296525Y-46043368D01*
X43134010Y-46286589D01*
X43022068Y-46556842D01*
X42965000Y-46843740D01*
X42965000Y-47136260D01*
X43022068Y-47423158D01*
X43134010Y-47693411D01*
X43296525Y-47936632D01*
X43503368Y-48143475D01*
X43677760Y-48260000D01*
X43503368Y-48376525D01*
X43296525Y-48583368D01*
X43134010Y-48826589D01*
X43022068Y-49096842D01*
X42965000Y-49383740D01*
X42965000Y-49676260D01*
X43022068Y-49963158D01*
X43134010Y-50233411D01*
X43296525Y-50476632D01*
X43503368Y-50683475D01*
X43677760Y-50800000D01*
X43503368Y-50916525D01*
X43296525Y-51123368D01*
X43134010Y-51366589D01*
X43022068Y-51636842D01*
X42965000Y-51923740D01*
X42965000Y-52216260D01*
X43022068Y-52503158D01*
X43134010Y-52773411D01*
X43296525Y-53016632D01*
X43503368Y-53223475D01*
X43677760Y-53340000D01*
X43503368Y-53456525D01*
X43296525Y-53663368D01*
X43134010Y-53906589D01*
X43022068Y-54176842D01*
X42965000Y-54463740D01*
X42965000Y-54756260D01*
X43022068Y-55043158D01*
X43134010Y-55313411D01*
X43296525Y-55556632D01*
X43503368Y-55763475D01*
X43677760Y-55880000D01*
X43503368Y-55996525D01*
X43296525Y-56203368D01*
X43134010Y-56446589D01*
X43022068Y-56716842D01*
X42965000Y-57003740D01*
X42965000Y-57296260D01*
X43022068Y-57583158D01*
X43134010Y-57853411D01*
X43296525Y-58096632D01*
X43503368Y-58303475D01*
X43685534Y-58425195D01*
X43568645Y-58494822D01*
X43352412Y-58689731D01*
X43178359Y-58923080D01*
X43053175Y-59185901D01*
X43008524Y-59333110D01*
X43129845Y-59563000D01*
X44323000Y-59563000D01*
X44323000Y-59543000D01*
X44577000Y-59543000D01*
X44577000Y-59563000D01*
X44597000Y-59563000D01*
X44597000Y-59817000D01*
X44577000Y-59817000D01*
X44577000Y-59837000D01*
X44323000Y-59837000D01*
X44323000Y-59817000D01*
X43129845Y-59817000D01*
X43008524Y-60046890D01*
X43053175Y-60194099D01*
X43178359Y-60456920D01*
X43352412Y-60690269D01*
X43568645Y-60885178D01*
X43685534Y-60954805D01*
X43503368Y-61076525D01*
X43296525Y-61283368D01*
X43134010Y-61526589D01*
X43022068Y-61796842D01*
X42965000Y-62083740D01*
X42965000Y-62376260D01*
X43022068Y-62663158D01*
X43134010Y-62933411D01*
X43296525Y-63176632D01*
X43503368Y-63383475D01*
X43677760Y-63500000D01*
X43503368Y-63616525D01*
X43296525Y-63823368D01*
X43134010Y-64066589D01*
X43022068Y-64336842D01*
X42965000Y-64623740D01*
X42965000Y-64916260D01*
X43008790Y-65136408D01*
X42313988Y-65831211D01*
X42284990Y-65855009D01*
X42261192Y-65884007D01*
X42261191Y-65884008D01*
X42190016Y-65970734D01*
X42119444Y-66102764D01*
X42075988Y-66246025D01*
X42061314Y-66395010D01*
X12827000Y-66395010D01*
X12827000Y-21233110D01*
X43008524Y-21233110D01*
X43129845Y-21463000D01*
X44323000Y-21463000D01*
X44323000Y-20269186D01*
X44093109Y-20148519D01*
X43818748Y-20245843D01*
X43568645Y-20394822D01*
X43352412Y-20589731D01*
X43178359Y-20823080D01*
X43053175Y-21085901D01*
X43008524Y-21233110D01*
X12827000Y-21233110D01*
X12827000Y-16522032D01*
X20710000Y-16522032D01*
X20710000Y-16917968D01*
X20787243Y-17306296D01*
X20938761Y-17672092D01*
X21158731Y-18001301D01*
X21438699Y-18281269D01*
X21767908Y-18501239D01*
X22133704Y-18652757D01*
X22522032Y-18730000D01*
X22917968Y-18730000D01*
X23306296Y-18652757D01*
X23672092Y-18501239D01*
X24001301Y-18281269D01*
X24281269Y-18001301D01*
X24501239Y-17672092D01*
X24652757Y-17306296D01*
X24730000Y-16917968D01*
X24730000Y-16522032D01*
X43710000Y-16522032D01*
X43710000Y-16917968D01*
X43787243Y-17306296D01*
X43938761Y-17672092D01*
X44158731Y-18001301D01*
X44438699Y-18281269D01*
X44767908Y-18501239D01*
X45133704Y-18652757D01*
X45522032Y-18730000D01*
X45917968Y-18730000D01*
X46306296Y-18652757D01*
X46672092Y-18501239D01*
X47001301Y-18281269D01*
X47281269Y-18001301D01*
X47501239Y-17672092D01*
X47652757Y-17306296D01*
X47730000Y-16917968D01*
X47730000Y-16522032D01*
X47652757Y-16133704D01*
X47501239Y-15767908D01*
X47281269Y-15438699D01*
X47001301Y-15158731D01*
X46672092Y-14938761D01*
X46306296Y-14787243D01*
X45917968Y-14710000D01*
X45522032Y-14710000D01*
X45133704Y-14787243D01*
X44767908Y-14938761D01*
X44438699Y-15158731D01*
X44158731Y-15438699D01*
X43938761Y-15767908D01*
X43787243Y-16133704D01*
X43710000Y-16522032D01*
X24730000Y-16522032D01*
X24652757Y-16133704D01*
X24501239Y-15767908D01*
X24281269Y-15438699D01*
X24001301Y-15158731D01*
X23672092Y-14938761D01*
X23306296Y-14787243D01*
X22917968Y-14710000D01*
X22522032Y-14710000D01*
X22133704Y-14787243D01*
X21767908Y-14938761D01*
X21438699Y-15158731D01*
X21158731Y-15438699D01*
X20938761Y-15767908D01*
X20787243Y-16133704D01*
X20710000Y-16522032D01*
X12827000Y-16522032D01*
X12827000Y-10287000D01*
X60833000Y-10287000D01*
X60833000Y-87503000D01*
G36*
X55665000Y-67456260D02*
G01*
X55722068Y-67743158D01*
X55834010Y-68013411D01*
X55996525Y-68256632D01*
X56203368Y-68463475D01*
X56385534Y-68585195D01*
X56268645Y-68654822D01*
X56052412Y-68849731D01*
X55878359Y-69083080D01*
X55753175Y-69345901D01*
X55708524Y-69493110D01*
X55829845Y-69723000D01*
X57023000Y-69723000D01*
X57023000Y-69703000D01*
X57277000Y-69703000D01*
X57277000Y-69723000D01*
X57297000Y-69723000D01*
X57297000Y-69977000D01*
X57277000Y-69977000D01*
X57277000Y-69997000D01*
X57023000Y-69997000D01*
X57023000Y-69977000D01*
X55829845Y-69977000D01*
X55708524Y-70206890D01*
X55753175Y-70354099D01*
X55878359Y-70616920D01*
X56052412Y-70850269D01*
X56268645Y-71045178D01*
X56385534Y-71114805D01*
X56203368Y-71236525D01*
X55996525Y-71443368D01*
X55834010Y-71686589D01*
X55722068Y-71956842D01*
X55665000Y-72243740D01*
X55665000Y-72536260D01*
X55722068Y-72823158D01*
X55834010Y-73093411D01*
X55996525Y-73336632D01*
X56203368Y-73543475D01*
X56377760Y-73660000D01*
X56203368Y-73776525D01*
X55996525Y-73983368D01*
X55834010Y-74226589D01*
X55722068Y-74496842D01*
X55665000Y-74783740D01*
X55665000Y-75076260D01*
X55722068Y-75363158D01*
X55834010Y-75633411D01*
X55996525Y-75876632D01*
X56203368Y-76083475D01*
X56377760Y-76200000D01*
X56203368Y-76316525D01*
X55996525Y-76523368D01*
X55834010Y-76766589D01*
X55722068Y-77036842D01*
X55665000Y-77323740D01*
X55665000Y-77616260D01*
X55722068Y-77903158D01*
X55834010Y-78173411D01*
X55996525Y-78416632D01*
X56203368Y-78623475D01*
X56377760Y-78740000D01*
X56203368Y-78856525D01*
X55996525Y-79063368D01*
X55834010Y-79306589D01*
X55722068Y-79576842D01*
X55665000Y-79863740D01*
X55665000Y-79990198D01*
X47009801Y-71335000D01*
X47136260Y-71335000D01*
X47423158Y-71277932D01*
X47693411Y-71165990D01*
X47936632Y-71003475D01*
X48143475Y-70796632D01*
X48305990Y-70553411D01*
X48417932Y-70283158D01*
X48475000Y-69996260D01*
X48475000Y-69703740D01*
X48417932Y-69416842D01*
X48305990Y-69146589D01*
X48143475Y-68903368D01*
X47936632Y-68696525D01*
X47762240Y-68580000D01*
X47936632Y-68463475D01*
X48143475Y-68256632D01*
X48268178Y-68070000D01*
X54572678Y-68070000D01*
X54610000Y-68073676D01*
X54647322Y-68070000D01*
X54647333Y-68070000D01*
X54758986Y-68059003D01*
X54902247Y-68015546D01*
X55034276Y-67944974D01*
X55150001Y-67850001D01*
X55173804Y-67820997D01*
X55665000Y-67329801D01*
X55665000Y-67456260D01*
G37*
X55665000Y-67456260D02*
X55722068Y-67743158D01*
X55834010Y-68013411D01*
X55996525Y-68256632D01*
X56203368Y-68463475D01*
X56385534Y-68585195D01*
X56268645Y-68654822D01*
X56052412Y-68849731D01*
X55878359Y-69083080D01*
X55753175Y-69345901D01*
X55708524Y-69493110D01*
X55829845Y-69723000D01*
X57023000Y-69723000D01*
X57023000Y-69703000D01*
X57277000Y-69703000D01*
X57277000Y-69723000D01*
X57297000Y-69723000D01*
X57297000Y-69977000D01*
X57277000Y-69977000D01*
X57277000Y-69997000D01*
X57023000Y-69997000D01*
X57023000Y-69977000D01*
X55829845Y-69977000D01*
X55708524Y-70206890D01*
X55753175Y-70354099D01*
X55878359Y-70616920D01*
X56052412Y-70850269D01*
X56268645Y-71045178D01*
X56385534Y-71114805D01*
X56203368Y-71236525D01*
X55996525Y-71443368D01*
X55834010Y-71686589D01*
X55722068Y-71956842D01*
X55665000Y-72243740D01*
X55665000Y-72536260D01*
X55722068Y-72823158D01*
X55834010Y-73093411D01*
X55996525Y-73336632D01*
X56203368Y-73543475D01*
X56377760Y-73660000D01*
X56203368Y-73776525D01*
X55996525Y-73983368D01*
X55834010Y-74226589D01*
X55722068Y-74496842D01*
X55665000Y-74783740D01*
X55665000Y-75076260D01*
X55722068Y-75363158D01*
X55834010Y-75633411D01*
X55996525Y-75876632D01*
X56203368Y-76083475D01*
X56377760Y-76200000D01*
X56203368Y-76316525D01*
X55996525Y-76523368D01*
X55834010Y-76766589D01*
X55722068Y-77036842D01*
X55665000Y-77323740D01*
X55665000Y-77616260D01*
X55722068Y-77903158D01*
X55834010Y-78173411D01*
X55996525Y-78416632D01*
X56203368Y-78623475D01*
X56377760Y-78740000D01*
X56203368Y-78856525D01*
X55996525Y-79063368D01*
X55834010Y-79306589D01*
X55722068Y-79576842D01*
X55665000Y-79863740D01*
X55665000Y-79990198D01*
X47009801Y-71335000D01*
X47136260Y-71335000D01*
X47423158Y-71277932D01*
X47693411Y-71165990D01*
X47936632Y-71003475D01*
X48143475Y-70796632D01*
X48305990Y-70553411D01*
X48417932Y-70283158D01*
X48475000Y-69996260D01*
X48475000Y-69703740D01*
X48417932Y-69416842D01*
X48305990Y-69146589D01*
X48143475Y-68903368D01*
X47936632Y-68696525D01*
X47762240Y-68580000D01*
X47936632Y-68463475D01*
X48143475Y-68256632D01*
X48268178Y-68070000D01*
X54572678Y-68070000D01*
X54610000Y-68073676D01*
X54647322Y-68070000D01*
X54647333Y-68070000D01*
X54758986Y-68059003D01*
X54902247Y-68015546D01*
X55034276Y-67944974D01*
X55150001Y-67850001D01*
X55173804Y-67820997D01*
X55665000Y-67329801D01*
X55665000Y-67456260D01*
G36*
X55996525Y-49206632D02*
G01*
X56203368Y-49413475D01*
X56385534Y-49535195D01*
X56268645Y-49604822D01*
X56052412Y-49799731D01*
X55878359Y-50033080D01*
X55753175Y-50295901D01*
X55708524Y-50443110D01*
X55829845Y-50673000D01*
X57023000Y-50673000D01*
X57023000Y-50653000D01*
X57277000Y-50653000D01*
X57277000Y-50673000D01*
X57297000Y-50673000D01*
X57297000Y-50927000D01*
X57277000Y-50927000D01*
X57277000Y-50947000D01*
X57023000Y-50947000D01*
X57023000Y-50927000D01*
X55829845Y-50927000D01*
X55708524Y-51156890D01*
X55753175Y-51304099D01*
X55878359Y-51566920D01*
X56052412Y-51800269D01*
X56268645Y-51995178D01*
X56385534Y-52064805D01*
X56203368Y-52186525D01*
X55996525Y-52393368D01*
X55834010Y-52636589D01*
X55722068Y-52906842D01*
X55665000Y-53193740D01*
X55665000Y-53486260D01*
X55722068Y-53773158D01*
X55834010Y-54043411D01*
X55996525Y-54286632D01*
X56128380Y-54418487D01*
X56055820Y-54440498D01*
X55945506Y-54499463D01*
X55848815Y-54578815D01*
X55837457Y-54592655D01*
X54644999Y-53400198D01*
X54644999Y-49295000D01*
X54711939Y-49295000D01*
X54911898Y-49255226D01*
X55100256Y-49177205D01*
X55269774Y-49063937D01*
X55313711Y-49020000D01*
X55871822Y-49020000D01*
X55996525Y-49206632D01*
G37*
X55996525Y-49206632D02*
X56203368Y-49413475D01*
X56385534Y-49535195D01*
X56268645Y-49604822D01*
X56052412Y-49799731D01*
X55878359Y-50033080D01*
X55753175Y-50295901D01*
X55708524Y-50443110D01*
X55829845Y-50673000D01*
X57023000Y-50673000D01*
X57023000Y-50653000D01*
X57277000Y-50653000D01*
X57277000Y-50673000D01*
X57297000Y-50673000D01*
X57297000Y-50927000D01*
X57277000Y-50927000D01*
X57277000Y-50947000D01*
X57023000Y-50947000D01*
X57023000Y-50927000D01*
X55829845Y-50927000D01*
X55708524Y-51156890D01*
X55753175Y-51304099D01*
X55878359Y-51566920D01*
X56052412Y-51800269D01*
X56268645Y-51995178D01*
X56385534Y-52064805D01*
X56203368Y-52186525D01*
X55996525Y-52393368D01*
X55834010Y-52636589D01*
X55722068Y-52906842D01*
X55665000Y-53193740D01*
X55665000Y-53486260D01*
X55722068Y-53773158D01*
X55834010Y-54043411D01*
X55996525Y-54286632D01*
X56128380Y-54418487D01*
X56055820Y-54440498D01*
X55945506Y-54499463D01*
X55848815Y-54578815D01*
X55837457Y-54592655D01*
X54644999Y-53400198D01*
X54644999Y-49295000D01*
X54711939Y-49295000D01*
X54911898Y-49255226D01*
X55100256Y-49177205D01*
X55269774Y-49063937D01*
X55313711Y-49020000D01*
X55871822Y-49020000D01*
X55996525Y-49206632D01*
M02*
