M48
; DRILL file {KiCad (5.1.5)-3} date 12/27/2019 9:02:50 PM
; FORMAT={-:-/ absolute / inch / decimal}
; #@! TF.CreationDate,2019-12-27T21:02:50-05:00
; #@! TF.GenerationSoftware,Kicad,Pcbnew,(5.1.5)-3
; #@! TF.FileFunction,Plated,1,2,PTH
FMAT,2
INCH
T1C0.0157
T2C0.0394
%
G90
G05
T1
X2.15Y-0.9
X2.15Y-1.9
T2
X2.25Y-1.5
X2.25Y-1.6
X2.25Y-1.7
X2.25Y-1.8
X2.25Y-1.9
X2.25Y-2.0
X2.25Y-2.1
X2.25Y-2.2
X2.25Y-2.55
X2.25Y-2.65
X2.25Y-2.75
X2.25Y-2.85
X2.25Y-2.95
X2.25Y-3.05
X2.25Y-3.15
X2.25Y-3.25
X2.25Y-3.35
X2.25Y-0.6
X2.25Y-0.7
X2.25Y-0.8
X2.25Y-0.9
X2.25Y-1.0
X2.25Y-1.1
X2.25Y-1.2
X1.75Y-0.85
X1.75Y-0.95
X1.75Y-1.05
X1.75Y-1.15
X1.75Y-1.25
X1.75Y-1.35
X1.75Y-1.45
X1.75Y-1.55
X1.75Y-1.65
X1.75Y-1.75
X1.75Y-1.85
X1.75Y-1.95
X1.75Y-2.05
X1.75Y-2.15
X1.75Y-2.25
X1.75Y-2.35
X1.75Y-2.45
X1.75Y-2.55
X1.75Y-2.65
X1.75Y-2.75
X1.85Y-0.85
X1.85Y-0.95
X1.85Y-1.05
X1.85Y-1.15
X1.85Y-1.25
X1.85Y-1.35
X1.85Y-1.45
X1.85Y-1.55
X1.85Y-1.65
X1.85Y-1.75
X1.85Y-1.85
X1.85Y-1.95
X1.85Y-2.05
X1.85Y-2.15
X1.85Y-2.25
X1.85Y-2.35
X1.85Y-2.45
X1.85Y-2.55
X1.85Y-2.65
X1.85Y-2.75
T0
M30
