G04 #@! TF.GenerationSoftware,KiCad,Pcbnew,(5.1.5)-3*
G04 #@! TF.CreationDate,2019-12-27T21:02:48-05:00*
G04 #@! TF.ProjectId,pi-altim,70692d61-6c74-4696-9d2e-6b696361645f,rev?*
G04 #@! TF.SameCoordinates,Original*
G04 #@! TF.FileFunction,Copper,L2,Bot*
G04 #@! TF.FilePolarity,Positive*
%FSLAX46Y46*%
G04 Gerber Fmt 4.6, Leading zero omitted, Abs format (unit mm)*
G04 Created by KiCad (PCBNEW (5.1.5)-3) date 2019-12-27 21:02:48*
%MOMM*%
%LPD*%
G04 APERTURE LIST*
%ADD10O,1.700000X1.700000*%
%ADD11R,1.700000X1.700000*%
%ADD12C,0.800000*%
%ADD13C,0.250000*%
%ADD14C,0.254000*%
G04 APERTURE END LIST*
D10*
X46990000Y-64770000D03*
X44450000Y-67310000D03*
X44450000Y-52070000D03*
X46990000Y-52070000D03*
X46990000Y-67310000D03*
X44450000Y-64770000D03*
X46990000Y-69850000D03*
D11*
X44450000Y-69850000D03*
D10*
X44450000Y-41910000D03*
X46990000Y-41910000D03*
X44450000Y-57150000D03*
X46990000Y-57150000D03*
X44450000Y-36830000D03*
X46990000Y-36830000D03*
X44450000Y-54610000D03*
X46990000Y-54610000D03*
X44450000Y-59690000D03*
X46990000Y-59690000D03*
X44450000Y-46990000D03*
X46990000Y-46990000D03*
X44450000Y-24130000D03*
X46990000Y-24130000D03*
X44450000Y-29210000D03*
X46990000Y-29210000D03*
X44450000Y-26670000D03*
X46990000Y-26670000D03*
X44450000Y-49530000D03*
X46990000Y-49530000D03*
X44450000Y-31750000D03*
X46990000Y-31750000D03*
X44450000Y-62230000D03*
X46990000Y-62230000D03*
X44450000Y-34290000D03*
X46990000Y-34290000D03*
X44450000Y-44450000D03*
X46990000Y-44450000D03*
X44450000Y-39370000D03*
X46990000Y-39370000D03*
X44450000Y-21590000D03*
X46990000Y-21590000D03*
D11*
X57150000Y-30480000D03*
D10*
X57150000Y-27940000D03*
X57150000Y-25400000D03*
X57150000Y-22860000D03*
X57150000Y-20320000D03*
X57150000Y-17780000D03*
X57150000Y-15240000D03*
D11*
X57150000Y-55880000D03*
D10*
X57150000Y-53340000D03*
X57150000Y-50800000D03*
X57150000Y-48260000D03*
X57150000Y-45720000D03*
X57150000Y-43180000D03*
X57150000Y-40640000D03*
X57150000Y-38100000D03*
D11*
X57150000Y-85090000D03*
D10*
X57150000Y-82550000D03*
X57150000Y-80010000D03*
X57150000Y-77470000D03*
X57150000Y-74930000D03*
X57150000Y-72390000D03*
X57150000Y-69850000D03*
X57150000Y-67310000D03*
X57150000Y-64770000D03*
D12*
X54610000Y-22860000D03*
X54610000Y-48260000D03*
D13*
X54610000Y-22860000D02*
X54610000Y-48260000D01*
X45299999Y-63920001D02*
X44450000Y-64770000D01*
X45625001Y-63594999D02*
X45299999Y-63920001D01*
X45625001Y-61855997D02*
X45625001Y-63594999D01*
X46425999Y-61054999D02*
X45625001Y-61855997D01*
X47364003Y-61054999D02*
X46425999Y-61054999D01*
X54610000Y-53809002D02*
X47364003Y-61054999D01*
X54610000Y-48260000D02*
X54610000Y-53809002D01*
D14*
G36*
X60833000Y-87503000D02*
G01*
X12827000Y-87503000D01*
X12827000Y-84240000D01*
X55661928Y-84240000D01*
X55661928Y-85940000D01*
X55674188Y-86064482D01*
X55710498Y-86184180D01*
X55769463Y-86294494D01*
X55848815Y-86391185D01*
X55945506Y-86470537D01*
X56055820Y-86529502D01*
X56175518Y-86565812D01*
X56300000Y-86578072D01*
X58000000Y-86578072D01*
X58124482Y-86565812D01*
X58244180Y-86529502D01*
X58354494Y-86470537D01*
X58451185Y-86391185D01*
X58530537Y-86294494D01*
X58589502Y-86184180D01*
X58625812Y-86064482D01*
X58638072Y-85940000D01*
X58638072Y-84240000D01*
X58625812Y-84115518D01*
X58589502Y-83995820D01*
X58530537Y-83885506D01*
X58451185Y-83788815D01*
X58354494Y-83709463D01*
X58244180Y-83650498D01*
X58171620Y-83628487D01*
X58303475Y-83496632D01*
X58465990Y-83253411D01*
X58577932Y-82983158D01*
X58635000Y-82696260D01*
X58635000Y-82403740D01*
X58577932Y-82116842D01*
X58465990Y-81846589D01*
X58303475Y-81603368D01*
X58096632Y-81396525D01*
X57922240Y-81280000D01*
X58096632Y-81163475D01*
X58303475Y-80956632D01*
X58465990Y-80713411D01*
X58577932Y-80443158D01*
X58635000Y-80156260D01*
X58635000Y-79863740D01*
X58577932Y-79576842D01*
X58465990Y-79306589D01*
X58303475Y-79063368D01*
X58096632Y-78856525D01*
X57922240Y-78740000D01*
X58096632Y-78623475D01*
X58303475Y-78416632D01*
X58465990Y-78173411D01*
X58577932Y-77903158D01*
X58635000Y-77616260D01*
X58635000Y-77323740D01*
X58577932Y-77036842D01*
X58465990Y-76766589D01*
X58303475Y-76523368D01*
X58096632Y-76316525D01*
X57922240Y-76200000D01*
X58096632Y-76083475D01*
X58303475Y-75876632D01*
X58465990Y-75633411D01*
X58577932Y-75363158D01*
X58635000Y-75076260D01*
X58635000Y-74783740D01*
X58577932Y-74496842D01*
X58465990Y-74226589D01*
X58303475Y-73983368D01*
X58096632Y-73776525D01*
X57922240Y-73660000D01*
X58096632Y-73543475D01*
X58303475Y-73336632D01*
X58465990Y-73093411D01*
X58577932Y-72823158D01*
X58635000Y-72536260D01*
X58635000Y-72243740D01*
X58577932Y-71956842D01*
X58465990Y-71686589D01*
X58303475Y-71443368D01*
X58096632Y-71236525D01*
X57914466Y-71114805D01*
X58031355Y-71045178D01*
X58247588Y-70850269D01*
X58421641Y-70616920D01*
X58546825Y-70354099D01*
X58591476Y-70206890D01*
X58470155Y-69977000D01*
X57277000Y-69977000D01*
X57277000Y-69997000D01*
X57023000Y-69997000D01*
X57023000Y-69977000D01*
X55829845Y-69977000D01*
X55708524Y-70206890D01*
X55753175Y-70354099D01*
X55878359Y-70616920D01*
X56052412Y-70850269D01*
X56268645Y-71045178D01*
X56385534Y-71114805D01*
X56203368Y-71236525D01*
X55996525Y-71443368D01*
X55834010Y-71686589D01*
X55722068Y-71956842D01*
X55665000Y-72243740D01*
X55665000Y-72536260D01*
X55722068Y-72823158D01*
X55834010Y-73093411D01*
X55996525Y-73336632D01*
X56203368Y-73543475D01*
X56377760Y-73660000D01*
X56203368Y-73776525D01*
X55996525Y-73983368D01*
X55834010Y-74226589D01*
X55722068Y-74496842D01*
X55665000Y-74783740D01*
X55665000Y-75076260D01*
X55722068Y-75363158D01*
X55834010Y-75633411D01*
X55996525Y-75876632D01*
X56203368Y-76083475D01*
X56377760Y-76200000D01*
X56203368Y-76316525D01*
X55996525Y-76523368D01*
X55834010Y-76766589D01*
X55722068Y-77036842D01*
X55665000Y-77323740D01*
X55665000Y-77616260D01*
X55722068Y-77903158D01*
X55834010Y-78173411D01*
X55996525Y-78416632D01*
X56203368Y-78623475D01*
X56377760Y-78740000D01*
X56203368Y-78856525D01*
X55996525Y-79063368D01*
X55834010Y-79306589D01*
X55722068Y-79576842D01*
X55665000Y-79863740D01*
X55665000Y-80156260D01*
X55722068Y-80443158D01*
X55834010Y-80713411D01*
X55996525Y-80956632D01*
X56203368Y-81163475D01*
X56377760Y-81280000D01*
X56203368Y-81396525D01*
X55996525Y-81603368D01*
X55834010Y-81846589D01*
X55722068Y-82116842D01*
X55665000Y-82403740D01*
X55665000Y-82696260D01*
X55722068Y-82983158D01*
X55834010Y-83253411D01*
X55996525Y-83496632D01*
X56128380Y-83628487D01*
X56055820Y-83650498D01*
X55945506Y-83709463D01*
X55848815Y-83788815D01*
X55769463Y-83885506D01*
X55710498Y-83995820D01*
X55674188Y-84115518D01*
X55661928Y-84240000D01*
X12827000Y-84240000D01*
X12827000Y-74522032D01*
X20710000Y-74522032D01*
X20710000Y-74917968D01*
X20787243Y-75306296D01*
X20938761Y-75672092D01*
X21158731Y-76001301D01*
X21438699Y-76281269D01*
X21767908Y-76501239D01*
X22133704Y-76652757D01*
X22522032Y-76730000D01*
X22917968Y-76730000D01*
X23306296Y-76652757D01*
X23672092Y-76501239D01*
X24001301Y-76281269D01*
X24281269Y-76001301D01*
X24501239Y-75672092D01*
X24652757Y-75306296D01*
X24730000Y-74917968D01*
X24730000Y-74522032D01*
X43710000Y-74522032D01*
X43710000Y-74917968D01*
X43787243Y-75306296D01*
X43938761Y-75672092D01*
X44158731Y-76001301D01*
X44438699Y-76281269D01*
X44767908Y-76501239D01*
X45133704Y-76652757D01*
X45522032Y-76730000D01*
X45917968Y-76730000D01*
X46306296Y-76652757D01*
X46672092Y-76501239D01*
X47001301Y-76281269D01*
X47281269Y-76001301D01*
X47501239Y-75672092D01*
X47652757Y-75306296D01*
X47730000Y-74917968D01*
X47730000Y-74522032D01*
X47652757Y-74133704D01*
X47501239Y-73767908D01*
X47281269Y-73438699D01*
X47001301Y-73158731D01*
X46672092Y-72938761D01*
X46306296Y-72787243D01*
X45917968Y-72710000D01*
X45522032Y-72710000D01*
X45133704Y-72787243D01*
X44767908Y-72938761D01*
X44438699Y-73158731D01*
X44158731Y-73438699D01*
X43938761Y-73767908D01*
X43787243Y-74133704D01*
X43710000Y-74522032D01*
X24730000Y-74522032D01*
X24652757Y-74133704D01*
X24501239Y-73767908D01*
X24281269Y-73438699D01*
X24001301Y-73158731D01*
X23672092Y-72938761D01*
X23306296Y-72787243D01*
X22917968Y-72710000D01*
X22522032Y-72710000D01*
X22133704Y-72787243D01*
X21767908Y-72938761D01*
X21438699Y-73158731D01*
X21158731Y-73438699D01*
X20938761Y-73767908D01*
X20787243Y-74133704D01*
X20710000Y-74522032D01*
X12827000Y-74522032D01*
X12827000Y-69000000D01*
X42961928Y-69000000D01*
X42961928Y-70700000D01*
X42974188Y-70824482D01*
X43010498Y-70944180D01*
X43069463Y-71054494D01*
X43148815Y-71151185D01*
X43245506Y-71230537D01*
X43355820Y-71289502D01*
X43475518Y-71325812D01*
X43600000Y-71338072D01*
X45300000Y-71338072D01*
X45424482Y-71325812D01*
X45544180Y-71289502D01*
X45654494Y-71230537D01*
X45751185Y-71151185D01*
X45830537Y-71054494D01*
X45889502Y-70944180D01*
X45911513Y-70871620D01*
X46043368Y-71003475D01*
X46286589Y-71165990D01*
X46556842Y-71277932D01*
X46843740Y-71335000D01*
X47136260Y-71335000D01*
X47423158Y-71277932D01*
X47693411Y-71165990D01*
X47936632Y-71003475D01*
X48143475Y-70796632D01*
X48305990Y-70553411D01*
X48417932Y-70283158D01*
X48475000Y-69996260D01*
X48475000Y-69703740D01*
X48417932Y-69416842D01*
X48305990Y-69146589D01*
X48143475Y-68903368D01*
X47936632Y-68696525D01*
X47762240Y-68580000D01*
X47936632Y-68463475D01*
X48143475Y-68256632D01*
X48305990Y-68013411D01*
X48417932Y-67743158D01*
X48475000Y-67456260D01*
X48475000Y-67163740D01*
X48417932Y-66876842D01*
X48305990Y-66606589D01*
X48143475Y-66363368D01*
X47936632Y-66156525D01*
X47754466Y-66034805D01*
X47871355Y-65965178D01*
X48087588Y-65770269D01*
X48261641Y-65536920D01*
X48386825Y-65274099D01*
X48431476Y-65126890D01*
X48310155Y-64897000D01*
X47117000Y-64897000D01*
X47117000Y-64917000D01*
X46863000Y-64917000D01*
X46863000Y-64897000D01*
X46843000Y-64897000D01*
X46843000Y-64643000D01*
X46863000Y-64643000D01*
X46863000Y-64623000D01*
X47117000Y-64623000D01*
X47117000Y-64643000D01*
X48310155Y-64643000D01*
X48320319Y-64623740D01*
X55665000Y-64623740D01*
X55665000Y-64916260D01*
X55722068Y-65203158D01*
X55834010Y-65473411D01*
X55996525Y-65716632D01*
X56203368Y-65923475D01*
X56377760Y-66040000D01*
X56203368Y-66156525D01*
X55996525Y-66363368D01*
X55834010Y-66606589D01*
X55722068Y-66876842D01*
X55665000Y-67163740D01*
X55665000Y-67456260D01*
X55722068Y-67743158D01*
X55834010Y-68013411D01*
X55996525Y-68256632D01*
X56203368Y-68463475D01*
X56385534Y-68585195D01*
X56268645Y-68654822D01*
X56052412Y-68849731D01*
X55878359Y-69083080D01*
X55753175Y-69345901D01*
X55708524Y-69493110D01*
X55829845Y-69723000D01*
X57023000Y-69723000D01*
X57023000Y-69703000D01*
X57277000Y-69703000D01*
X57277000Y-69723000D01*
X58470155Y-69723000D01*
X58591476Y-69493110D01*
X58546825Y-69345901D01*
X58421641Y-69083080D01*
X58247588Y-68849731D01*
X58031355Y-68654822D01*
X57914466Y-68585195D01*
X58096632Y-68463475D01*
X58303475Y-68256632D01*
X58465990Y-68013411D01*
X58577932Y-67743158D01*
X58635000Y-67456260D01*
X58635000Y-67163740D01*
X58577932Y-66876842D01*
X58465990Y-66606589D01*
X58303475Y-66363368D01*
X58096632Y-66156525D01*
X57922240Y-66040000D01*
X58096632Y-65923475D01*
X58303475Y-65716632D01*
X58465990Y-65473411D01*
X58577932Y-65203158D01*
X58635000Y-64916260D01*
X58635000Y-64623740D01*
X58577932Y-64336842D01*
X58465990Y-64066589D01*
X58303475Y-63823368D01*
X58096632Y-63616525D01*
X57853411Y-63454010D01*
X57583158Y-63342068D01*
X57296260Y-63285000D01*
X57003740Y-63285000D01*
X56716842Y-63342068D01*
X56446589Y-63454010D01*
X56203368Y-63616525D01*
X55996525Y-63823368D01*
X55834010Y-64066589D01*
X55722068Y-64336842D01*
X55665000Y-64623740D01*
X48320319Y-64623740D01*
X48431476Y-64413110D01*
X48386825Y-64265901D01*
X48261641Y-64003080D01*
X48087588Y-63769731D01*
X47871355Y-63574822D01*
X47754466Y-63505195D01*
X47936632Y-63383475D01*
X48143475Y-63176632D01*
X48305990Y-62933411D01*
X48417932Y-62663158D01*
X48475000Y-62376260D01*
X48475000Y-62083740D01*
X48417932Y-61796842D01*
X48305990Y-61526589D01*
X48170295Y-61323508D01*
X54463803Y-55030000D01*
X55661928Y-55030000D01*
X55661928Y-56730000D01*
X55674188Y-56854482D01*
X55710498Y-56974180D01*
X55769463Y-57084494D01*
X55848815Y-57181185D01*
X55945506Y-57260537D01*
X56055820Y-57319502D01*
X56175518Y-57355812D01*
X56300000Y-57368072D01*
X58000000Y-57368072D01*
X58124482Y-57355812D01*
X58244180Y-57319502D01*
X58354494Y-57260537D01*
X58451185Y-57181185D01*
X58530537Y-57084494D01*
X58589502Y-56974180D01*
X58625812Y-56854482D01*
X58638072Y-56730000D01*
X58638072Y-55030000D01*
X58625812Y-54905518D01*
X58589502Y-54785820D01*
X58530537Y-54675506D01*
X58451185Y-54578815D01*
X58354494Y-54499463D01*
X58244180Y-54440498D01*
X58171620Y-54418487D01*
X58303475Y-54286632D01*
X58465990Y-54043411D01*
X58577932Y-53773158D01*
X58635000Y-53486260D01*
X58635000Y-53193740D01*
X58577932Y-52906842D01*
X58465990Y-52636589D01*
X58303475Y-52393368D01*
X58096632Y-52186525D01*
X57914466Y-52064805D01*
X58031355Y-51995178D01*
X58247588Y-51800269D01*
X58421641Y-51566920D01*
X58546825Y-51304099D01*
X58591476Y-51156890D01*
X58470155Y-50927000D01*
X57277000Y-50927000D01*
X57277000Y-50947000D01*
X57023000Y-50947000D01*
X57023000Y-50927000D01*
X55829845Y-50927000D01*
X55708524Y-51156890D01*
X55753175Y-51304099D01*
X55878359Y-51566920D01*
X56052412Y-51800269D01*
X56268645Y-51995178D01*
X56385534Y-52064805D01*
X56203368Y-52186525D01*
X55996525Y-52393368D01*
X55834010Y-52636589D01*
X55722068Y-52906842D01*
X55665000Y-53193740D01*
X55665000Y-53486260D01*
X55722068Y-53773158D01*
X55834010Y-54043411D01*
X55996525Y-54286632D01*
X56128380Y-54418487D01*
X56055820Y-54440498D01*
X55945506Y-54499463D01*
X55848815Y-54578815D01*
X55769463Y-54675506D01*
X55710498Y-54785820D01*
X55674188Y-54905518D01*
X55661928Y-55030000D01*
X54463803Y-55030000D01*
X55121003Y-54372801D01*
X55150001Y-54349003D01*
X55244974Y-54233278D01*
X55315546Y-54101249D01*
X55359003Y-53957988D01*
X55370000Y-53846335D01*
X55370000Y-53846326D01*
X55373676Y-53809003D01*
X55370000Y-53771680D01*
X55370000Y-49657000D01*
X56210758Y-49657000D01*
X56052412Y-49799731D01*
X55878359Y-50033080D01*
X55753175Y-50295901D01*
X55708524Y-50443110D01*
X55829845Y-50673000D01*
X57023000Y-50673000D01*
X57023000Y-50653000D01*
X57277000Y-50653000D01*
X57277000Y-50673000D01*
X58470155Y-50673000D01*
X58591476Y-50443110D01*
X58546825Y-50295901D01*
X58421641Y-50033080D01*
X58247588Y-49799731D01*
X58089242Y-49657000D01*
X58420000Y-49657000D01*
X58444776Y-49654560D01*
X58468601Y-49647333D01*
X58490557Y-49635597D01*
X58509803Y-49619803D01*
X58525597Y-49600557D01*
X58537333Y-49578601D01*
X58544560Y-49554776D01*
X58547000Y-49530000D01*
X58547000Y-48767835D01*
X58577932Y-48693158D01*
X58635000Y-48406260D01*
X58635000Y-48113740D01*
X58577932Y-47826842D01*
X58547000Y-47752165D01*
X58547000Y-46990000D01*
X58544560Y-46965224D01*
X58537333Y-46941399D01*
X58525597Y-46919443D01*
X58509803Y-46900197D01*
X58490557Y-46884403D01*
X58468601Y-46872667D01*
X58444776Y-46865440D01*
X58420000Y-46863000D01*
X58107107Y-46863000D01*
X58303475Y-46666632D01*
X58465990Y-46423411D01*
X58577932Y-46153158D01*
X58635000Y-45866260D01*
X58635000Y-45573740D01*
X58577932Y-45286842D01*
X58465990Y-45016589D01*
X58303475Y-44773368D01*
X58096632Y-44566525D01*
X57922240Y-44450000D01*
X58096632Y-44333475D01*
X58303475Y-44126632D01*
X58465990Y-43883411D01*
X58577932Y-43613158D01*
X58635000Y-43326260D01*
X58635000Y-43033740D01*
X58577932Y-42746842D01*
X58465990Y-42476589D01*
X58303475Y-42233368D01*
X58096632Y-42026525D01*
X57922240Y-41910000D01*
X58096632Y-41793475D01*
X58303475Y-41586632D01*
X58465990Y-41343411D01*
X58577932Y-41073158D01*
X58635000Y-40786260D01*
X58635000Y-40493740D01*
X58577932Y-40206842D01*
X58465990Y-39936589D01*
X58303475Y-39693368D01*
X58096632Y-39486525D01*
X57922240Y-39370000D01*
X58096632Y-39253475D01*
X58303475Y-39046632D01*
X58465990Y-38803411D01*
X58577932Y-38533158D01*
X58635000Y-38246260D01*
X58635000Y-37953740D01*
X58577932Y-37666842D01*
X58465990Y-37396589D01*
X58303475Y-37153368D01*
X58096632Y-36946525D01*
X57853411Y-36784010D01*
X57583158Y-36672068D01*
X57296260Y-36615000D01*
X57003740Y-36615000D01*
X56716842Y-36672068D01*
X56446589Y-36784010D01*
X56203368Y-36946525D01*
X55996525Y-37153368D01*
X55834010Y-37396589D01*
X55722068Y-37666842D01*
X55665000Y-37953740D01*
X55665000Y-38246260D01*
X55722068Y-38533158D01*
X55834010Y-38803411D01*
X55996525Y-39046632D01*
X56203368Y-39253475D01*
X56377760Y-39370000D01*
X56203368Y-39486525D01*
X55996525Y-39693368D01*
X55834010Y-39936589D01*
X55722068Y-40206842D01*
X55665000Y-40493740D01*
X55665000Y-40786260D01*
X55722068Y-41073158D01*
X55834010Y-41343411D01*
X55996525Y-41586632D01*
X56203368Y-41793475D01*
X56377760Y-41910000D01*
X56203368Y-42026525D01*
X55996525Y-42233368D01*
X55834010Y-42476589D01*
X55722068Y-42746842D01*
X55665000Y-43033740D01*
X55665000Y-43326260D01*
X55722068Y-43613158D01*
X55834010Y-43883411D01*
X55996525Y-44126632D01*
X56203368Y-44333475D01*
X56377760Y-44450000D01*
X56203368Y-44566525D01*
X55996525Y-44773368D01*
X55834010Y-45016589D01*
X55722068Y-45286842D01*
X55665000Y-45573740D01*
X55665000Y-45866260D01*
X55722068Y-46153158D01*
X55834010Y-46423411D01*
X55996525Y-46666632D01*
X56192893Y-46863000D01*
X55370000Y-46863000D01*
X55370000Y-29630000D01*
X55661928Y-29630000D01*
X55661928Y-31330000D01*
X55674188Y-31454482D01*
X55710498Y-31574180D01*
X55769463Y-31684494D01*
X55848815Y-31781185D01*
X55945506Y-31860537D01*
X56055820Y-31919502D01*
X56175518Y-31955812D01*
X56300000Y-31968072D01*
X58000000Y-31968072D01*
X58124482Y-31955812D01*
X58244180Y-31919502D01*
X58354494Y-31860537D01*
X58451185Y-31781185D01*
X58530537Y-31684494D01*
X58589502Y-31574180D01*
X58625812Y-31454482D01*
X58638072Y-31330000D01*
X58638072Y-29630000D01*
X58625812Y-29505518D01*
X58589502Y-29385820D01*
X58530537Y-29275506D01*
X58451185Y-29178815D01*
X58354494Y-29099463D01*
X58244180Y-29040498D01*
X58171620Y-29018487D01*
X58303475Y-28886632D01*
X58465990Y-28643411D01*
X58577932Y-28373158D01*
X58635000Y-28086260D01*
X58635000Y-27793740D01*
X58577932Y-27506842D01*
X58465990Y-27236589D01*
X58303475Y-26993368D01*
X58096632Y-26786525D01*
X57914466Y-26664805D01*
X58031355Y-26595178D01*
X58247588Y-26400269D01*
X58421641Y-26166920D01*
X58546825Y-25904099D01*
X58591476Y-25756890D01*
X58470155Y-25527000D01*
X57277000Y-25527000D01*
X57277000Y-25547000D01*
X57023000Y-25547000D01*
X57023000Y-25527000D01*
X55829845Y-25527000D01*
X55708524Y-25756890D01*
X55753175Y-25904099D01*
X55878359Y-26166920D01*
X56052412Y-26400269D01*
X56268645Y-26595178D01*
X56385534Y-26664805D01*
X56203368Y-26786525D01*
X55996525Y-26993368D01*
X55834010Y-27236589D01*
X55722068Y-27506842D01*
X55665000Y-27793740D01*
X55665000Y-28086260D01*
X55722068Y-28373158D01*
X55834010Y-28643411D01*
X55996525Y-28886632D01*
X56128380Y-29018487D01*
X56055820Y-29040498D01*
X55945506Y-29099463D01*
X55848815Y-29178815D01*
X55769463Y-29275506D01*
X55710498Y-29385820D01*
X55674188Y-29505518D01*
X55661928Y-29630000D01*
X55370000Y-29630000D01*
X55370000Y-24257000D01*
X56210758Y-24257000D01*
X56052412Y-24399731D01*
X55878359Y-24633080D01*
X55753175Y-24895901D01*
X55708524Y-25043110D01*
X55829845Y-25273000D01*
X57023000Y-25273000D01*
X57023000Y-25253000D01*
X57277000Y-25253000D01*
X57277000Y-25273000D01*
X58470155Y-25273000D01*
X58591476Y-25043110D01*
X58546825Y-24895901D01*
X58421641Y-24633080D01*
X58247588Y-24399731D01*
X58089242Y-24257000D01*
X58420000Y-24257000D01*
X58444776Y-24254560D01*
X58468601Y-24247333D01*
X58490557Y-24235597D01*
X58509803Y-24219803D01*
X58525597Y-24200557D01*
X58537333Y-24178601D01*
X58544560Y-24154776D01*
X58547000Y-24130000D01*
X58547000Y-23367835D01*
X58577932Y-23293158D01*
X58635000Y-23006260D01*
X58635000Y-22713740D01*
X58577932Y-22426842D01*
X58547000Y-22352165D01*
X58547000Y-21590000D01*
X58544560Y-21565224D01*
X58537333Y-21541399D01*
X58525597Y-21519443D01*
X58509803Y-21500197D01*
X58490557Y-21484403D01*
X58468601Y-21472667D01*
X58444776Y-21465440D01*
X58420000Y-21463000D01*
X58107107Y-21463000D01*
X58303475Y-21266632D01*
X58465990Y-21023411D01*
X58577932Y-20753158D01*
X58635000Y-20466260D01*
X58635000Y-20173740D01*
X58577932Y-19886842D01*
X58465990Y-19616589D01*
X58303475Y-19373368D01*
X58096632Y-19166525D01*
X57922240Y-19050000D01*
X58096632Y-18933475D01*
X58303475Y-18726632D01*
X58465990Y-18483411D01*
X58577932Y-18213158D01*
X58635000Y-17926260D01*
X58635000Y-17633740D01*
X58577932Y-17346842D01*
X58465990Y-17076589D01*
X58303475Y-16833368D01*
X58096632Y-16626525D01*
X57922240Y-16510000D01*
X58096632Y-16393475D01*
X58303475Y-16186632D01*
X58465990Y-15943411D01*
X58577932Y-15673158D01*
X58635000Y-15386260D01*
X58635000Y-15093740D01*
X58577932Y-14806842D01*
X58465990Y-14536589D01*
X58303475Y-14293368D01*
X58096632Y-14086525D01*
X57853411Y-13924010D01*
X57583158Y-13812068D01*
X57296260Y-13755000D01*
X57003740Y-13755000D01*
X56716842Y-13812068D01*
X56446589Y-13924010D01*
X56203368Y-14086525D01*
X55996525Y-14293368D01*
X55834010Y-14536589D01*
X55722068Y-14806842D01*
X55665000Y-15093740D01*
X55665000Y-15386260D01*
X55722068Y-15673158D01*
X55834010Y-15943411D01*
X55996525Y-16186632D01*
X56203368Y-16393475D01*
X56377760Y-16510000D01*
X56203368Y-16626525D01*
X55996525Y-16833368D01*
X55834010Y-17076589D01*
X55722068Y-17346842D01*
X55665000Y-17633740D01*
X55665000Y-17926260D01*
X55722068Y-18213158D01*
X55834010Y-18483411D01*
X55996525Y-18726632D01*
X56203368Y-18933475D01*
X56377760Y-19050000D01*
X56203368Y-19166525D01*
X55996525Y-19373368D01*
X55834010Y-19616589D01*
X55722068Y-19886842D01*
X55665000Y-20173740D01*
X55665000Y-20466260D01*
X55722068Y-20753158D01*
X55834010Y-21023411D01*
X55996525Y-21266632D01*
X56192893Y-21463000D01*
X53340000Y-21463000D01*
X53315224Y-21465440D01*
X53291399Y-21472667D01*
X53269443Y-21484403D01*
X53250197Y-21500197D01*
X53234403Y-21519443D01*
X53222667Y-21541399D01*
X53215440Y-21565224D01*
X53213000Y-21590000D01*
X53213000Y-24130000D01*
X53215440Y-24154776D01*
X53222667Y-24178601D01*
X53234403Y-24200557D01*
X53250197Y-24219803D01*
X53269443Y-24235597D01*
X53291399Y-24247333D01*
X53315224Y-24254560D01*
X53340000Y-24257000D01*
X53850000Y-24257000D01*
X53850001Y-46863000D01*
X53340000Y-46863000D01*
X53315224Y-46865440D01*
X53291399Y-46872667D01*
X53269443Y-46884403D01*
X53250197Y-46900197D01*
X53234403Y-46919443D01*
X53222667Y-46941399D01*
X53215440Y-46965224D01*
X53213000Y-46990000D01*
X53213000Y-49530000D01*
X53215440Y-49554776D01*
X53222667Y-49578601D01*
X53234403Y-49600557D01*
X53250197Y-49619803D01*
X53269443Y-49635597D01*
X53291399Y-49647333D01*
X53315224Y-49654560D01*
X53340000Y-49657000D01*
X53850000Y-49657000D01*
X53850001Y-53494199D01*
X48321110Y-59023091D01*
X48305990Y-58986589D01*
X48143475Y-58743368D01*
X47936632Y-58536525D01*
X47762240Y-58420000D01*
X47936632Y-58303475D01*
X48143475Y-58096632D01*
X48305990Y-57853411D01*
X48417932Y-57583158D01*
X48475000Y-57296260D01*
X48475000Y-57003740D01*
X48417932Y-56716842D01*
X48305990Y-56446589D01*
X48143475Y-56203368D01*
X47936632Y-55996525D01*
X47754466Y-55874805D01*
X47871355Y-55805178D01*
X48087588Y-55610269D01*
X48261641Y-55376920D01*
X48386825Y-55114099D01*
X48431476Y-54966890D01*
X48310155Y-54737000D01*
X47117000Y-54737000D01*
X47117000Y-54757000D01*
X46863000Y-54757000D01*
X46863000Y-54737000D01*
X46843000Y-54737000D01*
X46843000Y-54483000D01*
X46863000Y-54483000D01*
X46863000Y-54463000D01*
X47117000Y-54463000D01*
X47117000Y-54483000D01*
X48310155Y-54483000D01*
X48431476Y-54253110D01*
X48386825Y-54105901D01*
X48261641Y-53843080D01*
X48087588Y-53609731D01*
X47871355Y-53414822D01*
X47754466Y-53345195D01*
X47936632Y-53223475D01*
X48143475Y-53016632D01*
X48305990Y-52773411D01*
X48417932Y-52503158D01*
X48475000Y-52216260D01*
X48475000Y-51923740D01*
X48417932Y-51636842D01*
X48305990Y-51366589D01*
X48143475Y-51123368D01*
X47936632Y-50916525D01*
X47762240Y-50800000D01*
X47936632Y-50683475D01*
X48143475Y-50476632D01*
X48305990Y-50233411D01*
X48417932Y-49963158D01*
X48475000Y-49676260D01*
X48475000Y-49383740D01*
X48417932Y-49096842D01*
X48305990Y-48826589D01*
X48143475Y-48583368D01*
X47936632Y-48376525D01*
X47754466Y-48254805D01*
X47871355Y-48185178D01*
X48087588Y-47990269D01*
X48261641Y-47756920D01*
X48386825Y-47494099D01*
X48431476Y-47346890D01*
X48310155Y-47117000D01*
X47117000Y-47117000D01*
X47117000Y-47137000D01*
X46863000Y-47137000D01*
X46863000Y-47117000D01*
X46843000Y-47117000D01*
X46843000Y-46863000D01*
X46863000Y-46863000D01*
X46863000Y-46843000D01*
X47117000Y-46843000D01*
X47117000Y-46863000D01*
X48310155Y-46863000D01*
X48431476Y-46633110D01*
X48386825Y-46485901D01*
X48261641Y-46223080D01*
X48087588Y-45989731D01*
X47871355Y-45794822D01*
X47754466Y-45725195D01*
X47936632Y-45603475D01*
X48143475Y-45396632D01*
X48305990Y-45153411D01*
X48417932Y-44883158D01*
X48475000Y-44596260D01*
X48475000Y-44303740D01*
X48417932Y-44016842D01*
X48305990Y-43746589D01*
X48143475Y-43503368D01*
X47936632Y-43296525D01*
X47762240Y-43180000D01*
X47936632Y-43063475D01*
X48143475Y-42856632D01*
X48305990Y-42613411D01*
X48417932Y-42343158D01*
X48475000Y-42056260D01*
X48475000Y-41763740D01*
X48417932Y-41476842D01*
X48305990Y-41206589D01*
X48143475Y-40963368D01*
X47936632Y-40756525D01*
X47762240Y-40640000D01*
X47936632Y-40523475D01*
X48143475Y-40316632D01*
X48305990Y-40073411D01*
X48417932Y-39803158D01*
X48475000Y-39516260D01*
X48475000Y-39223740D01*
X48417932Y-38936842D01*
X48305990Y-38666589D01*
X48143475Y-38423368D01*
X47936632Y-38216525D01*
X47762240Y-38100000D01*
X47936632Y-37983475D01*
X48143475Y-37776632D01*
X48305990Y-37533411D01*
X48417932Y-37263158D01*
X48475000Y-36976260D01*
X48475000Y-36683740D01*
X48417932Y-36396842D01*
X48305990Y-36126589D01*
X48143475Y-35883368D01*
X47936632Y-35676525D01*
X47754466Y-35554805D01*
X47871355Y-35485178D01*
X48087588Y-35290269D01*
X48261641Y-35056920D01*
X48386825Y-34794099D01*
X48431476Y-34646890D01*
X48310155Y-34417000D01*
X47117000Y-34417000D01*
X47117000Y-34437000D01*
X46863000Y-34437000D01*
X46863000Y-34417000D01*
X46843000Y-34417000D01*
X46843000Y-34163000D01*
X46863000Y-34163000D01*
X46863000Y-34143000D01*
X47117000Y-34143000D01*
X47117000Y-34163000D01*
X48310155Y-34163000D01*
X48431476Y-33933110D01*
X48386825Y-33785901D01*
X48261641Y-33523080D01*
X48087588Y-33289731D01*
X47871355Y-33094822D01*
X47754466Y-33025195D01*
X47936632Y-32903475D01*
X48143475Y-32696632D01*
X48305990Y-32453411D01*
X48417932Y-32183158D01*
X48475000Y-31896260D01*
X48475000Y-31603740D01*
X48417932Y-31316842D01*
X48305990Y-31046589D01*
X48143475Y-30803368D01*
X47936632Y-30596525D01*
X47754466Y-30474805D01*
X47871355Y-30405178D01*
X48087588Y-30210269D01*
X48261641Y-29976920D01*
X48386825Y-29714099D01*
X48431476Y-29566890D01*
X48310155Y-29337000D01*
X47117000Y-29337000D01*
X47117000Y-29357000D01*
X46863000Y-29357000D01*
X46863000Y-29337000D01*
X46843000Y-29337000D01*
X46843000Y-29083000D01*
X46863000Y-29083000D01*
X46863000Y-29063000D01*
X47117000Y-29063000D01*
X47117000Y-29083000D01*
X48310155Y-29083000D01*
X48431476Y-28853110D01*
X48386825Y-28705901D01*
X48261641Y-28443080D01*
X48087588Y-28209731D01*
X47871355Y-28014822D01*
X47754466Y-27945195D01*
X47936632Y-27823475D01*
X48143475Y-27616632D01*
X48305990Y-27373411D01*
X48417932Y-27103158D01*
X48475000Y-26816260D01*
X48475000Y-26523740D01*
X48417932Y-26236842D01*
X48305990Y-25966589D01*
X48143475Y-25723368D01*
X47936632Y-25516525D01*
X47762240Y-25400000D01*
X47936632Y-25283475D01*
X48143475Y-25076632D01*
X48305990Y-24833411D01*
X48417932Y-24563158D01*
X48475000Y-24276260D01*
X48475000Y-23983740D01*
X48417932Y-23696842D01*
X48305990Y-23426589D01*
X48143475Y-23183368D01*
X47936632Y-22976525D01*
X47762240Y-22860000D01*
X47936632Y-22743475D01*
X48143475Y-22536632D01*
X48305990Y-22293411D01*
X48417932Y-22023158D01*
X48475000Y-21736260D01*
X48475000Y-21443740D01*
X48417932Y-21156842D01*
X48305990Y-20886589D01*
X48143475Y-20643368D01*
X47936632Y-20436525D01*
X47693411Y-20274010D01*
X47423158Y-20162068D01*
X47136260Y-20105000D01*
X46843740Y-20105000D01*
X46556842Y-20162068D01*
X46286589Y-20274010D01*
X46043368Y-20436525D01*
X45836525Y-20643368D01*
X45718900Y-20819406D01*
X45547588Y-20589731D01*
X45331355Y-20394822D01*
X45081252Y-20245843D01*
X44806891Y-20148519D01*
X44577000Y-20269186D01*
X44577000Y-21463000D01*
X44597000Y-21463000D01*
X44597000Y-21717000D01*
X44577000Y-21717000D01*
X44577000Y-21737000D01*
X44323000Y-21737000D01*
X44323000Y-21717000D01*
X43129845Y-21717000D01*
X43008524Y-21946890D01*
X43053175Y-22094099D01*
X43178359Y-22356920D01*
X43352412Y-22590269D01*
X43568645Y-22785178D01*
X43685534Y-22854805D01*
X43503368Y-22976525D01*
X43296525Y-23183368D01*
X43134010Y-23426589D01*
X43022068Y-23696842D01*
X42965000Y-23983740D01*
X42965000Y-24276260D01*
X43022068Y-24563158D01*
X43134010Y-24833411D01*
X43296525Y-25076632D01*
X43503368Y-25283475D01*
X43677760Y-25400000D01*
X43503368Y-25516525D01*
X43296525Y-25723368D01*
X43134010Y-25966589D01*
X43022068Y-26236842D01*
X42965000Y-26523740D01*
X42965000Y-26816260D01*
X43022068Y-27103158D01*
X43134010Y-27373411D01*
X43296525Y-27616632D01*
X43503368Y-27823475D01*
X43677760Y-27940000D01*
X43503368Y-28056525D01*
X43296525Y-28263368D01*
X43134010Y-28506589D01*
X43022068Y-28776842D01*
X42965000Y-29063740D01*
X42965000Y-29356260D01*
X43022068Y-29643158D01*
X43134010Y-29913411D01*
X43296525Y-30156632D01*
X43503368Y-30363475D01*
X43677760Y-30480000D01*
X43503368Y-30596525D01*
X43296525Y-30803368D01*
X43134010Y-31046589D01*
X43022068Y-31316842D01*
X42965000Y-31603740D01*
X42965000Y-31896260D01*
X43022068Y-32183158D01*
X43134010Y-32453411D01*
X43296525Y-32696632D01*
X43503368Y-32903475D01*
X43677760Y-33020000D01*
X43503368Y-33136525D01*
X43296525Y-33343368D01*
X43134010Y-33586589D01*
X43022068Y-33856842D01*
X42965000Y-34143740D01*
X42965000Y-34436260D01*
X43022068Y-34723158D01*
X43134010Y-34993411D01*
X43296525Y-35236632D01*
X43503368Y-35443475D01*
X43677760Y-35560000D01*
X43503368Y-35676525D01*
X43296525Y-35883368D01*
X43134010Y-36126589D01*
X43022068Y-36396842D01*
X42965000Y-36683740D01*
X42965000Y-36976260D01*
X43022068Y-37263158D01*
X43134010Y-37533411D01*
X43296525Y-37776632D01*
X43503368Y-37983475D01*
X43685534Y-38105195D01*
X43568645Y-38174822D01*
X43352412Y-38369731D01*
X43178359Y-38603080D01*
X43053175Y-38865901D01*
X43008524Y-39013110D01*
X43129845Y-39243000D01*
X44323000Y-39243000D01*
X44323000Y-39223000D01*
X44577000Y-39223000D01*
X44577000Y-39243000D01*
X44597000Y-39243000D01*
X44597000Y-39497000D01*
X44577000Y-39497000D01*
X44577000Y-39517000D01*
X44323000Y-39517000D01*
X44323000Y-39497000D01*
X43129845Y-39497000D01*
X43008524Y-39726890D01*
X43053175Y-39874099D01*
X43178359Y-40136920D01*
X43352412Y-40370269D01*
X43568645Y-40565178D01*
X43685534Y-40634805D01*
X43503368Y-40756525D01*
X43296525Y-40963368D01*
X43134010Y-41206589D01*
X43022068Y-41476842D01*
X42965000Y-41763740D01*
X42965000Y-42056260D01*
X43022068Y-42343158D01*
X43134010Y-42613411D01*
X43296525Y-42856632D01*
X43503368Y-43063475D01*
X43677760Y-43180000D01*
X43503368Y-43296525D01*
X43296525Y-43503368D01*
X43134010Y-43746589D01*
X43022068Y-44016842D01*
X42965000Y-44303740D01*
X42965000Y-44596260D01*
X43022068Y-44883158D01*
X43134010Y-45153411D01*
X43296525Y-45396632D01*
X43503368Y-45603475D01*
X43677760Y-45720000D01*
X43503368Y-45836525D01*
X43296525Y-46043368D01*
X43134010Y-46286589D01*
X43022068Y-46556842D01*
X42965000Y-46843740D01*
X42965000Y-47136260D01*
X43022068Y-47423158D01*
X43134010Y-47693411D01*
X43296525Y-47936632D01*
X43503368Y-48143475D01*
X43677760Y-48260000D01*
X43503368Y-48376525D01*
X43296525Y-48583368D01*
X43134010Y-48826589D01*
X43022068Y-49096842D01*
X42965000Y-49383740D01*
X42965000Y-49676260D01*
X43022068Y-49963158D01*
X43134010Y-50233411D01*
X43296525Y-50476632D01*
X43503368Y-50683475D01*
X43677760Y-50800000D01*
X43503368Y-50916525D01*
X43296525Y-51123368D01*
X43134010Y-51366589D01*
X43022068Y-51636842D01*
X42965000Y-51923740D01*
X42965000Y-52216260D01*
X43022068Y-52503158D01*
X43134010Y-52773411D01*
X43296525Y-53016632D01*
X43503368Y-53223475D01*
X43677760Y-53340000D01*
X43503368Y-53456525D01*
X43296525Y-53663368D01*
X43134010Y-53906589D01*
X43022068Y-54176842D01*
X42965000Y-54463740D01*
X42965000Y-54756260D01*
X43022068Y-55043158D01*
X43134010Y-55313411D01*
X43296525Y-55556632D01*
X43503368Y-55763475D01*
X43677760Y-55880000D01*
X43503368Y-55996525D01*
X43296525Y-56203368D01*
X43134010Y-56446589D01*
X43022068Y-56716842D01*
X42965000Y-57003740D01*
X42965000Y-57296260D01*
X43022068Y-57583158D01*
X43134010Y-57853411D01*
X43296525Y-58096632D01*
X43503368Y-58303475D01*
X43685534Y-58425195D01*
X43568645Y-58494822D01*
X43352412Y-58689731D01*
X43178359Y-58923080D01*
X43053175Y-59185901D01*
X43008524Y-59333110D01*
X43129845Y-59563000D01*
X44323000Y-59563000D01*
X44323000Y-59543000D01*
X44577000Y-59543000D01*
X44577000Y-59563000D01*
X44597000Y-59563000D01*
X44597000Y-59817000D01*
X44577000Y-59817000D01*
X44577000Y-59837000D01*
X44323000Y-59837000D01*
X44323000Y-59817000D01*
X43129845Y-59817000D01*
X43008524Y-60046890D01*
X43053175Y-60194099D01*
X43178359Y-60456920D01*
X43352412Y-60690269D01*
X43568645Y-60885178D01*
X43685534Y-60954805D01*
X43503368Y-61076525D01*
X43296525Y-61283368D01*
X43134010Y-61526589D01*
X43022068Y-61796842D01*
X42965000Y-62083740D01*
X42965000Y-62376260D01*
X43022068Y-62663158D01*
X43134010Y-62933411D01*
X43296525Y-63176632D01*
X43503368Y-63383475D01*
X43677760Y-63500000D01*
X43503368Y-63616525D01*
X43296525Y-63823368D01*
X43134010Y-64066589D01*
X43022068Y-64336842D01*
X42965000Y-64623740D01*
X42965000Y-64916260D01*
X43022068Y-65203158D01*
X43134010Y-65473411D01*
X43296525Y-65716632D01*
X43503368Y-65923475D01*
X43677760Y-66040000D01*
X43503368Y-66156525D01*
X43296525Y-66363368D01*
X43134010Y-66606589D01*
X43022068Y-66876842D01*
X42965000Y-67163740D01*
X42965000Y-67456260D01*
X43022068Y-67743158D01*
X43134010Y-68013411D01*
X43296525Y-68256632D01*
X43428380Y-68388487D01*
X43355820Y-68410498D01*
X43245506Y-68469463D01*
X43148815Y-68548815D01*
X43069463Y-68645506D01*
X43010498Y-68755820D01*
X42974188Y-68875518D01*
X42961928Y-69000000D01*
X12827000Y-69000000D01*
X12827000Y-21233110D01*
X43008524Y-21233110D01*
X43129845Y-21463000D01*
X44323000Y-21463000D01*
X44323000Y-20269186D01*
X44093109Y-20148519D01*
X43818748Y-20245843D01*
X43568645Y-20394822D01*
X43352412Y-20589731D01*
X43178359Y-20823080D01*
X43053175Y-21085901D01*
X43008524Y-21233110D01*
X12827000Y-21233110D01*
X12827000Y-16522032D01*
X20710000Y-16522032D01*
X20710000Y-16917968D01*
X20787243Y-17306296D01*
X20938761Y-17672092D01*
X21158731Y-18001301D01*
X21438699Y-18281269D01*
X21767908Y-18501239D01*
X22133704Y-18652757D01*
X22522032Y-18730000D01*
X22917968Y-18730000D01*
X23306296Y-18652757D01*
X23672092Y-18501239D01*
X24001301Y-18281269D01*
X24281269Y-18001301D01*
X24501239Y-17672092D01*
X24652757Y-17306296D01*
X24730000Y-16917968D01*
X24730000Y-16522032D01*
X43710000Y-16522032D01*
X43710000Y-16917968D01*
X43787243Y-17306296D01*
X43938761Y-17672092D01*
X44158731Y-18001301D01*
X44438699Y-18281269D01*
X44767908Y-18501239D01*
X45133704Y-18652757D01*
X45522032Y-18730000D01*
X45917968Y-18730000D01*
X46306296Y-18652757D01*
X46672092Y-18501239D01*
X47001301Y-18281269D01*
X47281269Y-18001301D01*
X47501239Y-17672092D01*
X47652757Y-17306296D01*
X47730000Y-16917968D01*
X47730000Y-16522032D01*
X47652757Y-16133704D01*
X47501239Y-15767908D01*
X47281269Y-15438699D01*
X47001301Y-15158731D01*
X46672092Y-14938761D01*
X46306296Y-14787243D01*
X45917968Y-14710000D01*
X45522032Y-14710000D01*
X45133704Y-14787243D01*
X44767908Y-14938761D01*
X44438699Y-15158731D01*
X44158731Y-15438699D01*
X43938761Y-15767908D01*
X43787243Y-16133704D01*
X43710000Y-16522032D01*
X24730000Y-16522032D01*
X24652757Y-16133704D01*
X24501239Y-15767908D01*
X24281269Y-15438699D01*
X24001301Y-15158731D01*
X23672092Y-14938761D01*
X23306296Y-14787243D01*
X22917968Y-14710000D01*
X22522032Y-14710000D01*
X22133704Y-14787243D01*
X21767908Y-14938761D01*
X21438699Y-15158731D01*
X21158731Y-15438699D01*
X20938761Y-15767908D01*
X20787243Y-16133704D01*
X20710000Y-16522032D01*
X12827000Y-16522032D01*
X12827000Y-10287000D01*
X60833000Y-10287000D01*
X60833000Y-87503000D01*
G37*
X60833000Y-87503000D02*
X12827000Y-87503000D01*
X12827000Y-84240000D01*
X55661928Y-84240000D01*
X55661928Y-85940000D01*
X55674188Y-86064482D01*
X55710498Y-86184180D01*
X55769463Y-86294494D01*
X55848815Y-86391185D01*
X55945506Y-86470537D01*
X56055820Y-86529502D01*
X56175518Y-86565812D01*
X56300000Y-86578072D01*
X58000000Y-86578072D01*
X58124482Y-86565812D01*
X58244180Y-86529502D01*
X58354494Y-86470537D01*
X58451185Y-86391185D01*
X58530537Y-86294494D01*
X58589502Y-86184180D01*
X58625812Y-86064482D01*
X58638072Y-85940000D01*
X58638072Y-84240000D01*
X58625812Y-84115518D01*
X58589502Y-83995820D01*
X58530537Y-83885506D01*
X58451185Y-83788815D01*
X58354494Y-83709463D01*
X58244180Y-83650498D01*
X58171620Y-83628487D01*
X58303475Y-83496632D01*
X58465990Y-83253411D01*
X58577932Y-82983158D01*
X58635000Y-82696260D01*
X58635000Y-82403740D01*
X58577932Y-82116842D01*
X58465990Y-81846589D01*
X58303475Y-81603368D01*
X58096632Y-81396525D01*
X57922240Y-81280000D01*
X58096632Y-81163475D01*
X58303475Y-80956632D01*
X58465990Y-80713411D01*
X58577932Y-80443158D01*
X58635000Y-80156260D01*
X58635000Y-79863740D01*
X58577932Y-79576842D01*
X58465990Y-79306589D01*
X58303475Y-79063368D01*
X58096632Y-78856525D01*
X57922240Y-78740000D01*
X58096632Y-78623475D01*
X58303475Y-78416632D01*
X58465990Y-78173411D01*
X58577932Y-77903158D01*
X58635000Y-77616260D01*
X58635000Y-77323740D01*
X58577932Y-77036842D01*
X58465990Y-76766589D01*
X58303475Y-76523368D01*
X58096632Y-76316525D01*
X57922240Y-76200000D01*
X58096632Y-76083475D01*
X58303475Y-75876632D01*
X58465990Y-75633411D01*
X58577932Y-75363158D01*
X58635000Y-75076260D01*
X58635000Y-74783740D01*
X58577932Y-74496842D01*
X58465990Y-74226589D01*
X58303475Y-73983368D01*
X58096632Y-73776525D01*
X57922240Y-73660000D01*
X58096632Y-73543475D01*
X58303475Y-73336632D01*
X58465990Y-73093411D01*
X58577932Y-72823158D01*
X58635000Y-72536260D01*
X58635000Y-72243740D01*
X58577932Y-71956842D01*
X58465990Y-71686589D01*
X58303475Y-71443368D01*
X58096632Y-71236525D01*
X57914466Y-71114805D01*
X58031355Y-71045178D01*
X58247588Y-70850269D01*
X58421641Y-70616920D01*
X58546825Y-70354099D01*
X58591476Y-70206890D01*
X58470155Y-69977000D01*
X57277000Y-69977000D01*
X57277000Y-69997000D01*
X57023000Y-69997000D01*
X57023000Y-69977000D01*
X55829845Y-69977000D01*
X55708524Y-70206890D01*
X55753175Y-70354099D01*
X55878359Y-70616920D01*
X56052412Y-70850269D01*
X56268645Y-71045178D01*
X56385534Y-71114805D01*
X56203368Y-71236525D01*
X55996525Y-71443368D01*
X55834010Y-71686589D01*
X55722068Y-71956842D01*
X55665000Y-72243740D01*
X55665000Y-72536260D01*
X55722068Y-72823158D01*
X55834010Y-73093411D01*
X55996525Y-73336632D01*
X56203368Y-73543475D01*
X56377760Y-73660000D01*
X56203368Y-73776525D01*
X55996525Y-73983368D01*
X55834010Y-74226589D01*
X55722068Y-74496842D01*
X55665000Y-74783740D01*
X55665000Y-75076260D01*
X55722068Y-75363158D01*
X55834010Y-75633411D01*
X55996525Y-75876632D01*
X56203368Y-76083475D01*
X56377760Y-76200000D01*
X56203368Y-76316525D01*
X55996525Y-76523368D01*
X55834010Y-76766589D01*
X55722068Y-77036842D01*
X55665000Y-77323740D01*
X55665000Y-77616260D01*
X55722068Y-77903158D01*
X55834010Y-78173411D01*
X55996525Y-78416632D01*
X56203368Y-78623475D01*
X56377760Y-78740000D01*
X56203368Y-78856525D01*
X55996525Y-79063368D01*
X55834010Y-79306589D01*
X55722068Y-79576842D01*
X55665000Y-79863740D01*
X55665000Y-80156260D01*
X55722068Y-80443158D01*
X55834010Y-80713411D01*
X55996525Y-80956632D01*
X56203368Y-81163475D01*
X56377760Y-81280000D01*
X56203368Y-81396525D01*
X55996525Y-81603368D01*
X55834010Y-81846589D01*
X55722068Y-82116842D01*
X55665000Y-82403740D01*
X55665000Y-82696260D01*
X55722068Y-82983158D01*
X55834010Y-83253411D01*
X55996525Y-83496632D01*
X56128380Y-83628487D01*
X56055820Y-83650498D01*
X55945506Y-83709463D01*
X55848815Y-83788815D01*
X55769463Y-83885506D01*
X55710498Y-83995820D01*
X55674188Y-84115518D01*
X55661928Y-84240000D01*
X12827000Y-84240000D01*
X12827000Y-74522032D01*
X20710000Y-74522032D01*
X20710000Y-74917968D01*
X20787243Y-75306296D01*
X20938761Y-75672092D01*
X21158731Y-76001301D01*
X21438699Y-76281269D01*
X21767908Y-76501239D01*
X22133704Y-76652757D01*
X22522032Y-76730000D01*
X22917968Y-76730000D01*
X23306296Y-76652757D01*
X23672092Y-76501239D01*
X24001301Y-76281269D01*
X24281269Y-76001301D01*
X24501239Y-75672092D01*
X24652757Y-75306296D01*
X24730000Y-74917968D01*
X24730000Y-74522032D01*
X43710000Y-74522032D01*
X43710000Y-74917968D01*
X43787243Y-75306296D01*
X43938761Y-75672092D01*
X44158731Y-76001301D01*
X44438699Y-76281269D01*
X44767908Y-76501239D01*
X45133704Y-76652757D01*
X45522032Y-76730000D01*
X45917968Y-76730000D01*
X46306296Y-76652757D01*
X46672092Y-76501239D01*
X47001301Y-76281269D01*
X47281269Y-76001301D01*
X47501239Y-75672092D01*
X47652757Y-75306296D01*
X47730000Y-74917968D01*
X47730000Y-74522032D01*
X47652757Y-74133704D01*
X47501239Y-73767908D01*
X47281269Y-73438699D01*
X47001301Y-73158731D01*
X46672092Y-72938761D01*
X46306296Y-72787243D01*
X45917968Y-72710000D01*
X45522032Y-72710000D01*
X45133704Y-72787243D01*
X44767908Y-72938761D01*
X44438699Y-73158731D01*
X44158731Y-73438699D01*
X43938761Y-73767908D01*
X43787243Y-74133704D01*
X43710000Y-74522032D01*
X24730000Y-74522032D01*
X24652757Y-74133704D01*
X24501239Y-73767908D01*
X24281269Y-73438699D01*
X24001301Y-73158731D01*
X23672092Y-72938761D01*
X23306296Y-72787243D01*
X22917968Y-72710000D01*
X22522032Y-72710000D01*
X22133704Y-72787243D01*
X21767908Y-72938761D01*
X21438699Y-73158731D01*
X21158731Y-73438699D01*
X20938761Y-73767908D01*
X20787243Y-74133704D01*
X20710000Y-74522032D01*
X12827000Y-74522032D01*
X12827000Y-69000000D01*
X42961928Y-69000000D01*
X42961928Y-70700000D01*
X42974188Y-70824482D01*
X43010498Y-70944180D01*
X43069463Y-71054494D01*
X43148815Y-71151185D01*
X43245506Y-71230537D01*
X43355820Y-71289502D01*
X43475518Y-71325812D01*
X43600000Y-71338072D01*
X45300000Y-71338072D01*
X45424482Y-71325812D01*
X45544180Y-71289502D01*
X45654494Y-71230537D01*
X45751185Y-71151185D01*
X45830537Y-71054494D01*
X45889502Y-70944180D01*
X45911513Y-70871620D01*
X46043368Y-71003475D01*
X46286589Y-71165990D01*
X46556842Y-71277932D01*
X46843740Y-71335000D01*
X47136260Y-71335000D01*
X47423158Y-71277932D01*
X47693411Y-71165990D01*
X47936632Y-71003475D01*
X48143475Y-70796632D01*
X48305990Y-70553411D01*
X48417932Y-70283158D01*
X48475000Y-69996260D01*
X48475000Y-69703740D01*
X48417932Y-69416842D01*
X48305990Y-69146589D01*
X48143475Y-68903368D01*
X47936632Y-68696525D01*
X47762240Y-68580000D01*
X47936632Y-68463475D01*
X48143475Y-68256632D01*
X48305990Y-68013411D01*
X48417932Y-67743158D01*
X48475000Y-67456260D01*
X48475000Y-67163740D01*
X48417932Y-66876842D01*
X48305990Y-66606589D01*
X48143475Y-66363368D01*
X47936632Y-66156525D01*
X47754466Y-66034805D01*
X47871355Y-65965178D01*
X48087588Y-65770269D01*
X48261641Y-65536920D01*
X48386825Y-65274099D01*
X48431476Y-65126890D01*
X48310155Y-64897000D01*
X47117000Y-64897000D01*
X47117000Y-64917000D01*
X46863000Y-64917000D01*
X46863000Y-64897000D01*
X46843000Y-64897000D01*
X46843000Y-64643000D01*
X46863000Y-64643000D01*
X46863000Y-64623000D01*
X47117000Y-64623000D01*
X47117000Y-64643000D01*
X48310155Y-64643000D01*
X48320319Y-64623740D01*
X55665000Y-64623740D01*
X55665000Y-64916260D01*
X55722068Y-65203158D01*
X55834010Y-65473411D01*
X55996525Y-65716632D01*
X56203368Y-65923475D01*
X56377760Y-66040000D01*
X56203368Y-66156525D01*
X55996525Y-66363368D01*
X55834010Y-66606589D01*
X55722068Y-66876842D01*
X55665000Y-67163740D01*
X55665000Y-67456260D01*
X55722068Y-67743158D01*
X55834010Y-68013411D01*
X55996525Y-68256632D01*
X56203368Y-68463475D01*
X56385534Y-68585195D01*
X56268645Y-68654822D01*
X56052412Y-68849731D01*
X55878359Y-69083080D01*
X55753175Y-69345901D01*
X55708524Y-69493110D01*
X55829845Y-69723000D01*
X57023000Y-69723000D01*
X57023000Y-69703000D01*
X57277000Y-69703000D01*
X57277000Y-69723000D01*
X58470155Y-69723000D01*
X58591476Y-69493110D01*
X58546825Y-69345901D01*
X58421641Y-69083080D01*
X58247588Y-68849731D01*
X58031355Y-68654822D01*
X57914466Y-68585195D01*
X58096632Y-68463475D01*
X58303475Y-68256632D01*
X58465990Y-68013411D01*
X58577932Y-67743158D01*
X58635000Y-67456260D01*
X58635000Y-67163740D01*
X58577932Y-66876842D01*
X58465990Y-66606589D01*
X58303475Y-66363368D01*
X58096632Y-66156525D01*
X57922240Y-66040000D01*
X58096632Y-65923475D01*
X58303475Y-65716632D01*
X58465990Y-65473411D01*
X58577932Y-65203158D01*
X58635000Y-64916260D01*
X58635000Y-64623740D01*
X58577932Y-64336842D01*
X58465990Y-64066589D01*
X58303475Y-63823368D01*
X58096632Y-63616525D01*
X57853411Y-63454010D01*
X57583158Y-63342068D01*
X57296260Y-63285000D01*
X57003740Y-63285000D01*
X56716842Y-63342068D01*
X56446589Y-63454010D01*
X56203368Y-63616525D01*
X55996525Y-63823368D01*
X55834010Y-64066589D01*
X55722068Y-64336842D01*
X55665000Y-64623740D01*
X48320319Y-64623740D01*
X48431476Y-64413110D01*
X48386825Y-64265901D01*
X48261641Y-64003080D01*
X48087588Y-63769731D01*
X47871355Y-63574822D01*
X47754466Y-63505195D01*
X47936632Y-63383475D01*
X48143475Y-63176632D01*
X48305990Y-62933411D01*
X48417932Y-62663158D01*
X48475000Y-62376260D01*
X48475000Y-62083740D01*
X48417932Y-61796842D01*
X48305990Y-61526589D01*
X48170295Y-61323508D01*
X54463803Y-55030000D01*
X55661928Y-55030000D01*
X55661928Y-56730000D01*
X55674188Y-56854482D01*
X55710498Y-56974180D01*
X55769463Y-57084494D01*
X55848815Y-57181185D01*
X55945506Y-57260537D01*
X56055820Y-57319502D01*
X56175518Y-57355812D01*
X56300000Y-57368072D01*
X58000000Y-57368072D01*
X58124482Y-57355812D01*
X58244180Y-57319502D01*
X58354494Y-57260537D01*
X58451185Y-57181185D01*
X58530537Y-57084494D01*
X58589502Y-56974180D01*
X58625812Y-56854482D01*
X58638072Y-56730000D01*
X58638072Y-55030000D01*
X58625812Y-54905518D01*
X58589502Y-54785820D01*
X58530537Y-54675506D01*
X58451185Y-54578815D01*
X58354494Y-54499463D01*
X58244180Y-54440498D01*
X58171620Y-54418487D01*
X58303475Y-54286632D01*
X58465990Y-54043411D01*
X58577932Y-53773158D01*
X58635000Y-53486260D01*
X58635000Y-53193740D01*
X58577932Y-52906842D01*
X58465990Y-52636589D01*
X58303475Y-52393368D01*
X58096632Y-52186525D01*
X57914466Y-52064805D01*
X58031355Y-51995178D01*
X58247588Y-51800269D01*
X58421641Y-51566920D01*
X58546825Y-51304099D01*
X58591476Y-51156890D01*
X58470155Y-50927000D01*
X57277000Y-50927000D01*
X57277000Y-50947000D01*
X57023000Y-50947000D01*
X57023000Y-50927000D01*
X55829845Y-50927000D01*
X55708524Y-51156890D01*
X55753175Y-51304099D01*
X55878359Y-51566920D01*
X56052412Y-51800269D01*
X56268645Y-51995178D01*
X56385534Y-52064805D01*
X56203368Y-52186525D01*
X55996525Y-52393368D01*
X55834010Y-52636589D01*
X55722068Y-52906842D01*
X55665000Y-53193740D01*
X55665000Y-53486260D01*
X55722068Y-53773158D01*
X55834010Y-54043411D01*
X55996525Y-54286632D01*
X56128380Y-54418487D01*
X56055820Y-54440498D01*
X55945506Y-54499463D01*
X55848815Y-54578815D01*
X55769463Y-54675506D01*
X55710498Y-54785820D01*
X55674188Y-54905518D01*
X55661928Y-55030000D01*
X54463803Y-55030000D01*
X55121003Y-54372801D01*
X55150001Y-54349003D01*
X55244974Y-54233278D01*
X55315546Y-54101249D01*
X55359003Y-53957988D01*
X55370000Y-53846335D01*
X55370000Y-53846326D01*
X55373676Y-53809003D01*
X55370000Y-53771680D01*
X55370000Y-49657000D01*
X56210758Y-49657000D01*
X56052412Y-49799731D01*
X55878359Y-50033080D01*
X55753175Y-50295901D01*
X55708524Y-50443110D01*
X55829845Y-50673000D01*
X57023000Y-50673000D01*
X57023000Y-50653000D01*
X57277000Y-50653000D01*
X57277000Y-50673000D01*
X58470155Y-50673000D01*
X58591476Y-50443110D01*
X58546825Y-50295901D01*
X58421641Y-50033080D01*
X58247588Y-49799731D01*
X58089242Y-49657000D01*
X58420000Y-49657000D01*
X58444776Y-49654560D01*
X58468601Y-49647333D01*
X58490557Y-49635597D01*
X58509803Y-49619803D01*
X58525597Y-49600557D01*
X58537333Y-49578601D01*
X58544560Y-49554776D01*
X58547000Y-49530000D01*
X58547000Y-48767835D01*
X58577932Y-48693158D01*
X58635000Y-48406260D01*
X58635000Y-48113740D01*
X58577932Y-47826842D01*
X58547000Y-47752165D01*
X58547000Y-46990000D01*
X58544560Y-46965224D01*
X58537333Y-46941399D01*
X58525597Y-46919443D01*
X58509803Y-46900197D01*
X58490557Y-46884403D01*
X58468601Y-46872667D01*
X58444776Y-46865440D01*
X58420000Y-46863000D01*
X58107107Y-46863000D01*
X58303475Y-46666632D01*
X58465990Y-46423411D01*
X58577932Y-46153158D01*
X58635000Y-45866260D01*
X58635000Y-45573740D01*
X58577932Y-45286842D01*
X58465990Y-45016589D01*
X58303475Y-44773368D01*
X58096632Y-44566525D01*
X57922240Y-44450000D01*
X58096632Y-44333475D01*
X58303475Y-44126632D01*
X58465990Y-43883411D01*
X58577932Y-43613158D01*
X58635000Y-43326260D01*
X58635000Y-43033740D01*
X58577932Y-42746842D01*
X58465990Y-42476589D01*
X58303475Y-42233368D01*
X58096632Y-42026525D01*
X57922240Y-41910000D01*
X58096632Y-41793475D01*
X58303475Y-41586632D01*
X58465990Y-41343411D01*
X58577932Y-41073158D01*
X58635000Y-40786260D01*
X58635000Y-40493740D01*
X58577932Y-40206842D01*
X58465990Y-39936589D01*
X58303475Y-39693368D01*
X58096632Y-39486525D01*
X57922240Y-39370000D01*
X58096632Y-39253475D01*
X58303475Y-39046632D01*
X58465990Y-38803411D01*
X58577932Y-38533158D01*
X58635000Y-38246260D01*
X58635000Y-37953740D01*
X58577932Y-37666842D01*
X58465990Y-37396589D01*
X58303475Y-37153368D01*
X58096632Y-36946525D01*
X57853411Y-36784010D01*
X57583158Y-36672068D01*
X57296260Y-36615000D01*
X57003740Y-36615000D01*
X56716842Y-36672068D01*
X56446589Y-36784010D01*
X56203368Y-36946525D01*
X55996525Y-37153368D01*
X55834010Y-37396589D01*
X55722068Y-37666842D01*
X55665000Y-37953740D01*
X55665000Y-38246260D01*
X55722068Y-38533158D01*
X55834010Y-38803411D01*
X55996525Y-39046632D01*
X56203368Y-39253475D01*
X56377760Y-39370000D01*
X56203368Y-39486525D01*
X55996525Y-39693368D01*
X55834010Y-39936589D01*
X55722068Y-40206842D01*
X55665000Y-40493740D01*
X55665000Y-40786260D01*
X55722068Y-41073158D01*
X55834010Y-41343411D01*
X55996525Y-41586632D01*
X56203368Y-41793475D01*
X56377760Y-41910000D01*
X56203368Y-42026525D01*
X55996525Y-42233368D01*
X55834010Y-42476589D01*
X55722068Y-42746842D01*
X55665000Y-43033740D01*
X55665000Y-43326260D01*
X55722068Y-43613158D01*
X55834010Y-43883411D01*
X55996525Y-44126632D01*
X56203368Y-44333475D01*
X56377760Y-44450000D01*
X56203368Y-44566525D01*
X55996525Y-44773368D01*
X55834010Y-45016589D01*
X55722068Y-45286842D01*
X55665000Y-45573740D01*
X55665000Y-45866260D01*
X55722068Y-46153158D01*
X55834010Y-46423411D01*
X55996525Y-46666632D01*
X56192893Y-46863000D01*
X55370000Y-46863000D01*
X55370000Y-29630000D01*
X55661928Y-29630000D01*
X55661928Y-31330000D01*
X55674188Y-31454482D01*
X55710498Y-31574180D01*
X55769463Y-31684494D01*
X55848815Y-31781185D01*
X55945506Y-31860537D01*
X56055820Y-31919502D01*
X56175518Y-31955812D01*
X56300000Y-31968072D01*
X58000000Y-31968072D01*
X58124482Y-31955812D01*
X58244180Y-31919502D01*
X58354494Y-31860537D01*
X58451185Y-31781185D01*
X58530537Y-31684494D01*
X58589502Y-31574180D01*
X58625812Y-31454482D01*
X58638072Y-31330000D01*
X58638072Y-29630000D01*
X58625812Y-29505518D01*
X58589502Y-29385820D01*
X58530537Y-29275506D01*
X58451185Y-29178815D01*
X58354494Y-29099463D01*
X58244180Y-29040498D01*
X58171620Y-29018487D01*
X58303475Y-28886632D01*
X58465990Y-28643411D01*
X58577932Y-28373158D01*
X58635000Y-28086260D01*
X58635000Y-27793740D01*
X58577932Y-27506842D01*
X58465990Y-27236589D01*
X58303475Y-26993368D01*
X58096632Y-26786525D01*
X57914466Y-26664805D01*
X58031355Y-26595178D01*
X58247588Y-26400269D01*
X58421641Y-26166920D01*
X58546825Y-25904099D01*
X58591476Y-25756890D01*
X58470155Y-25527000D01*
X57277000Y-25527000D01*
X57277000Y-25547000D01*
X57023000Y-25547000D01*
X57023000Y-25527000D01*
X55829845Y-25527000D01*
X55708524Y-25756890D01*
X55753175Y-25904099D01*
X55878359Y-26166920D01*
X56052412Y-26400269D01*
X56268645Y-26595178D01*
X56385534Y-26664805D01*
X56203368Y-26786525D01*
X55996525Y-26993368D01*
X55834010Y-27236589D01*
X55722068Y-27506842D01*
X55665000Y-27793740D01*
X55665000Y-28086260D01*
X55722068Y-28373158D01*
X55834010Y-28643411D01*
X55996525Y-28886632D01*
X56128380Y-29018487D01*
X56055820Y-29040498D01*
X55945506Y-29099463D01*
X55848815Y-29178815D01*
X55769463Y-29275506D01*
X55710498Y-29385820D01*
X55674188Y-29505518D01*
X55661928Y-29630000D01*
X55370000Y-29630000D01*
X55370000Y-24257000D01*
X56210758Y-24257000D01*
X56052412Y-24399731D01*
X55878359Y-24633080D01*
X55753175Y-24895901D01*
X55708524Y-25043110D01*
X55829845Y-25273000D01*
X57023000Y-25273000D01*
X57023000Y-25253000D01*
X57277000Y-25253000D01*
X57277000Y-25273000D01*
X58470155Y-25273000D01*
X58591476Y-25043110D01*
X58546825Y-24895901D01*
X58421641Y-24633080D01*
X58247588Y-24399731D01*
X58089242Y-24257000D01*
X58420000Y-24257000D01*
X58444776Y-24254560D01*
X58468601Y-24247333D01*
X58490557Y-24235597D01*
X58509803Y-24219803D01*
X58525597Y-24200557D01*
X58537333Y-24178601D01*
X58544560Y-24154776D01*
X58547000Y-24130000D01*
X58547000Y-23367835D01*
X58577932Y-23293158D01*
X58635000Y-23006260D01*
X58635000Y-22713740D01*
X58577932Y-22426842D01*
X58547000Y-22352165D01*
X58547000Y-21590000D01*
X58544560Y-21565224D01*
X58537333Y-21541399D01*
X58525597Y-21519443D01*
X58509803Y-21500197D01*
X58490557Y-21484403D01*
X58468601Y-21472667D01*
X58444776Y-21465440D01*
X58420000Y-21463000D01*
X58107107Y-21463000D01*
X58303475Y-21266632D01*
X58465990Y-21023411D01*
X58577932Y-20753158D01*
X58635000Y-20466260D01*
X58635000Y-20173740D01*
X58577932Y-19886842D01*
X58465990Y-19616589D01*
X58303475Y-19373368D01*
X58096632Y-19166525D01*
X57922240Y-19050000D01*
X58096632Y-18933475D01*
X58303475Y-18726632D01*
X58465990Y-18483411D01*
X58577932Y-18213158D01*
X58635000Y-17926260D01*
X58635000Y-17633740D01*
X58577932Y-17346842D01*
X58465990Y-17076589D01*
X58303475Y-16833368D01*
X58096632Y-16626525D01*
X57922240Y-16510000D01*
X58096632Y-16393475D01*
X58303475Y-16186632D01*
X58465990Y-15943411D01*
X58577932Y-15673158D01*
X58635000Y-15386260D01*
X58635000Y-15093740D01*
X58577932Y-14806842D01*
X58465990Y-14536589D01*
X58303475Y-14293368D01*
X58096632Y-14086525D01*
X57853411Y-13924010D01*
X57583158Y-13812068D01*
X57296260Y-13755000D01*
X57003740Y-13755000D01*
X56716842Y-13812068D01*
X56446589Y-13924010D01*
X56203368Y-14086525D01*
X55996525Y-14293368D01*
X55834010Y-14536589D01*
X55722068Y-14806842D01*
X55665000Y-15093740D01*
X55665000Y-15386260D01*
X55722068Y-15673158D01*
X55834010Y-15943411D01*
X55996525Y-16186632D01*
X56203368Y-16393475D01*
X56377760Y-16510000D01*
X56203368Y-16626525D01*
X55996525Y-16833368D01*
X55834010Y-17076589D01*
X55722068Y-17346842D01*
X55665000Y-17633740D01*
X55665000Y-17926260D01*
X55722068Y-18213158D01*
X55834010Y-18483411D01*
X55996525Y-18726632D01*
X56203368Y-18933475D01*
X56377760Y-19050000D01*
X56203368Y-19166525D01*
X55996525Y-19373368D01*
X55834010Y-19616589D01*
X55722068Y-19886842D01*
X55665000Y-20173740D01*
X55665000Y-20466260D01*
X55722068Y-20753158D01*
X55834010Y-21023411D01*
X55996525Y-21266632D01*
X56192893Y-21463000D01*
X53340000Y-21463000D01*
X53315224Y-21465440D01*
X53291399Y-21472667D01*
X53269443Y-21484403D01*
X53250197Y-21500197D01*
X53234403Y-21519443D01*
X53222667Y-21541399D01*
X53215440Y-21565224D01*
X53213000Y-21590000D01*
X53213000Y-24130000D01*
X53215440Y-24154776D01*
X53222667Y-24178601D01*
X53234403Y-24200557D01*
X53250197Y-24219803D01*
X53269443Y-24235597D01*
X53291399Y-24247333D01*
X53315224Y-24254560D01*
X53340000Y-24257000D01*
X53850000Y-24257000D01*
X53850001Y-46863000D01*
X53340000Y-46863000D01*
X53315224Y-46865440D01*
X53291399Y-46872667D01*
X53269443Y-46884403D01*
X53250197Y-46900197D01*
X53234403Y-46919443D01*
X53222667Y-46941399D01*
X53215440Y-46965224D01*
X53213000Y-46990000D01*
X53213000Y-49530000D01*
X53215440Y-49554776D01*
X53222667Y-49578601D01*
X53234403Y-49600557D01*
X53250197Y-49619803D01*
X53269443Y-49635597D01*
X53291399Y-49647333D01*
X53315224Y-49654560D01*
X53340000Y-49657000D01*
X53850000Y-49657000D01*
X53850001Y-53494199D01*
X48321110Y-59023091D01*
X48305990Y-58986589D01*
X48143475Y-58743368D01*
X47936632Y-58536525D01*
X47762240Y-58420000D01*
X47936632Y-58303475D01*
X48143475Y-58096632D01*
X48305990Y-57853411D01*
X48417932Y-57583158D01*
X48475000Y-57296260D01*
X48475000Y-57003740D01*
X48417932Y-56716842D01*
X48305990Y-56446589D01*
X48143475Y-56203368D01*
X47936632Y-55996525D01*
X47754466Y-55874805D01*
X47871355Y-55805178D01*
X48087588Y-55610269D01*
X48261641Y-55376920D01*
X48386825Y-55114099D01*
X48431476Y-54966890D01*
X48310155Y-54737000D01*
X47117000Y-54737000D01*
X47117000Y-54757000D01*
X46863000Y-54757000D01*
X46863000Y-54737000D01*
X46843000Y-54737000D01*
X46843000Y-54483000D01*
X46863000Y-54483000D01*
X46863000Y-54463000D01*
X47117000Y-54463000D01*
X47117000Y-54483000D01*
X48310155Y-54483000D01*
X48431476Y-54253110D01*
X48386825Y-54105901D01*
X48261641Y-53843080D01*
X48087588Y-53609731D01*
X47871355Y-53414822D01*
X47754466Y-53345195D01*
X47936632Y-53223475D01*
X48143475Y-53016632D01*
X48305990Y-52773411D01*
X48417932Y-52503158D01*
X48475000Y-52216260D01*
X48475000Y-51923740D01*
X48417932Y-51636842D01*
X48305990Y-51366589D01*
X48143475Y-51123368D01*
X47936632Y-50916525D01*
X47762240Y-50800000D01*
X47936632Y-50683475D01*
X48143475Y-50476632D01*
X48305990Y-50233411D01*
X48417932Y-49963158D01*
X48475000Y-49676260D01*
X48475000Y-49383740D01*
X48417932Y-49096842D01*
X48305990Y-48826589D01*
X48143475Y-48583368D01*
X47936632Y-48376525D01*
X47754466Y-48254805D01*
X47871355Y-48185178D01*
X48087588Y-47990269D01*
X48261641Y-47756920D01*
X48386825Y-47494099D01*
X48431476Y-47346890D01*
X48310155Y-47117000D01*
X47117000Y-47117000D01*
X47117000Y-47137000D01*
X46863000Y-47137000D01*
X46863000Y-47117000D01*
X46843000Y-47117000D01*
X46843000Y-46863000D01*
X46863000Y-46863000D01*
X46863000Y-46843000D01*
X47117000Y-46843000D01*
X47117000Y-46863000D01*
X48310155Y-46863000D01*
X48431476Y-46633110D01*
X48386825Y-46485901D01*
X48261641Y-46223080D01*
X48087588Y-45989731D01*
X47871355Y-45794822D01*
X47754466Y-45725195D01*
X47936632Y-45603475D01*
X48143475Y-45396632D01*
X48305990Y-45153411D01*
X48417932Y-44883158D01*
X48475000Y-44596260D01*
X48475000Y-44303740D01*
X48417932Y-44016842D01*
X48305990Y-43746589D01*
X48143475Y-43503368D01*
X47936632Y-43296525D01*
X47762240Y-43180000D01*
X47936632Y-43063475D01*
X48143475Y-42856632D01*
X48305990Y-42613411D01*
X48417932Y-42343158D01*
X48475000Y-42056260D01*
X48475000Y-41763740D01*
X48417932Y-41476842D01*
X48305990Y-41206589D01*
X48143475Y-40963368D01*
X47936632Y-40756525D01*
X47762240Y-40640000D01*
X47936632Y-40523475D01*
X48143475Y-40316632D01*
X48305990Y-40073411D01*
X48417932Y-39803158D01*
X48475000Y-39516260D01*
X48475000Y-39223740D01*
X48417932Y-38936842D01*
X48305990Y-38666589D01*
X48143475Y-38423368D01*
X47936632Y-38216525D01*
X47762240Y-38100000D01*
X47936632Y-37983475D01*
X48143475Y-37776632D01*
X48305990Y-37533411D01*
X48417932Y-37263158D01*
X48475000Y-36976260D01*
X48475000Y-36683740D01*
X48417932Y-36396842D01*
X48305990Y-36126589D01*
X48143475Y-35883368D01*
X47936632Y-35676525D01*
X47754466Y-35554805D01*
X47871355Y-35485178D01*
X48087588Y-35290269D01*
X48261641Y-35056920D01*
X48386825Y-34794099D01*
X48431476Y-34646890D01*
X48310155Y-34417000D01*
X47117000Y-34417000D01*
X47117000Y-34437000D01*
X46863000Y-34437000D01*
X46863000Y-34417000D01*
X46843000Y-34417000D01*
X46843000Y-34163000D01*
X46863000Y-34163000D01*
X46863000Y-34143000D01*
X47117000Y-34143000D01*
X47117000Y-34163000D01*
X48310155Y-34163000D01*
X48431476Y-33933110D01*
X48386825Y-33785901D01*
X48261641Y-33523080D01*
X48087588Y-33289731D01*
X47871355Y-33094822D01*
X47754466Y-33025195D01*
X47936632Y-32903475D01*
X48143475Y-32696632D01*
X48305990Y-32453411D01*
X48417932Y-32183158D01*
X48475000Y-31896260D01*
X48475000Y-31603740D01*
X48417932Y-31316842D01*
X48305990Y-31046589D01*
X48143475Y-30803368D01*
X47936632Y-30596525D01*
X47754466Y-30474805D01*
X47871355Y-30405178D01*
X48087588Y-30210269D01*
X48261641Y-29976920D01*
X48386825Y-29714099D01*
X48431476Y-29566890D01*
X48310155Y-29337000D01*
X47117000Y-29337000D01*
X47117000Y-29357000D01*
X46863000Y-29357000D01*
X46863000Y-29337000D01*
X46843000Y-29337000D01*
X46843000Y-29083000D01*
X46863000Y-29083000D01*
X46863000Y-29063000D01*
X47117000Y-29063000D01*
X47117000Y-29083000D01*
X48310155Y-29083000D01*
X48431476Y-28853110D01*
X48386825Y-28705901D01*
X48261641Y-28443080D01*
X48087588Y-28209731D01*
X47871355Y-28014822D01*
X47754466Y-27945195D01*
X47936632Y-27823475D01*
X48143475Y-27616632D01*
X48305990Y-27373411D01*
X48417932Y-27103158D01*
X48475000Y-26816260D01*
X48475000Y-26523740D01*
X48417932Y-26236842D01*
X48305990Y-25966589D01*
X48143475Y-25723368D01*
X47936632Y-25516525D01*
X47762240Y-25400000D01*
X47936632Y-25283475D01*
X48143475Y-25076632D01*
X48305990Y-24833411D01*
X48417932Y-24563158D01*
X48475000Y-24276260D01*
X48475000Y-23983740D01*
X48417932Y-23696842D01*
X48305990Y-23426589D01*
X48143475Y-23183368D01*
X47936632Y-22976525D01*
X47762240Y-22860000D01*
X47936632Y-22743475D01*
X48143475Y-22536632D01*
X48305990Y-22293411D01*
X48417932Y-22023158D01*
X48475000Y-21736260D01*
X48475000Y-21443740D01*
X48417932Y-21156842D01*
X48305990Y-20886589D01*
X48143475Y-20643368D01*
X47936632Y-20436525D01*
X47693411Y-20274010D01*
X47423158Y-20162068D01*
X47136260Y-20105000D01*
X46843740Y-20105000D01*
X46556842Y-20162068D01*
X46286589Y-20274010D01*
X46043368Y-20436525D01*
X45836525Y-20643368D01*
X45718900Y-20819406D01*
X45547588Y-20589731D01*
X45331355Y-20394822D01*
X45081252Y-20245843D01*
X44806891Y-20148519D01*
X44577000Y-20269186D01*
X44577000Y-21463000D01*
X44597000Y-21463000D01*
X44597000Y-21717000D01*
X44577000Y-21717000D01*
X44577000Y-21737000D01*
X44323000Y-21737000D01*
X44323000Y-21717000D01*
X43129845Y-21717000D01*
X43008524Y-21946890D01*
X43053175Y-22094099D01*
X43178359Y-22356920D01*
X43352412Y-22590269D01*
X43568645Y-22785178D01*
X43685534Y-22854805D01*
X43503368Y-22976525D01*
X43296525Y-23183368D01*
X43134010Y-23426589D01*
X43022068Y-23696842D01*
X42965000Y-23983740D01*
X42965000Y-24276260D01*
X43022068Y-24563158D01*
X43134010Y-24833411D01*
X43296525Y-25076632D01*
X43503368Y-25283475D01*
X43677760Y-25400000D01*
X43503368Y-25516525D01*
X43296525Y-25723368D01*
X43134010Y-25966589D01*
X43022068Y-26236842D01*
X42965000Y-26523740D01*
X42965000Y-26816260D01*
X43022068Y-27103158D01*
X43134010Y-27373411D01*
X43296525Y-27616632D01*
X43503368Y-27823475D01*
X43677760Y-27940000D01*
X43503368Y-28056525D01*
X43296525Y-28263368D01*
X43134010Y-28506589D01*
X43022068Y-28776842D01*
X42965000Y-29063740D01*
X42965000Y-29356260D01*
X43022068Y-29643158D01*
X43134010Y-29913411D01*
X43296525Y-30156632D01*
X43503368Y-30363475D01*
X43677760Y-30480000D01*
X43503368Y-30596525D01*
X43296525Y-30803368D01*
X43134010Y-31046589D01*
X43022068Y-31316842D01*
X42965000Y-31603740D01*
X42965000Y-31896260D01*
X43022068Y-32183158D01*
X43134010Y-32453411D01*
X43296525Y-32696632D01*
X43503368Y-32903475D01*
X43677760Y-33020000D01*
X43503368Y-33136525D01*
X43296525Y-33343368D01*
X43134010Y-33586589D01*
X43022068Y-33856842D01*
X42965000Y-34143740D01*
X42965000Y-34436260D01*
X43022068Y-34723158D01*
X43134010Y-34993411D01*
X43296525Y-35236632D01*
X43503368Y-35443475D01*
X43677760Y-35560000D01*
X43503368Y-35676525D01*
X43296525Y-35883368D01*
X43134010Y-36126589D01*
X43022068Y-36396842D01*
X42965000Y-36683740D01*
X42965000Y-36976260D01*
X43022068Y-37263158D01*
X43134010Y-37533411D01*
X43296525Y-37776632D01*
X43503368Y-37983475D01*
X43685534Y-38105195D01*
X43568645Y-38174822D01*
X43352412Y-38369731D01*
X43178359Y-38603080D01*
X43053175Y-38865901D01*
X43008524Y-39013110D01*
X43129845Y-39243000D01*
X44323000Y-39243000D01*
X44323000Y-39223000D01*
X44577000Y-39223000D01*
X44577000Y-39243000D01*
X44597000Y-39243000D01*
X44597000Y-39497000D01*
X44577000Y-39497000D01*
X44577000Y-39517000D01*
X44323000Y-39517000D01*
X44323000Y-39497000D01*
X43129845Y-39497000D01*
X43008524Y-39726890D01*
X43053175Y-39874099D01*
X43178359Y-40136920D01*
X43352412Y-40370269D01*
X43568645Y-40565178D01*
X43685534Y-40634805D01*
X43503368Y-40756525D01*
X43296525Y-40963368D01*
X43134010Y-41206589D01*
X43022068Y-41476842D01*
X42965000Y-41763740D01*
X42965000Y-42056260D01*
X43022068Y-42343158D01*
X43134010Y-42613411D01*
X43296525Y-42856632D01*
X43503368Y-43063475D01*
X43677760Y-43180000D01*
X43503368Y-43296525D01*
X43296525Y-43503368D01*
X43134010Y-43746589D01*
X43022068Y-44016842D01*
X42965000Y-44303740D01*
X42965000Y-44596260D01*
X43022068Y-44883158D01*
X43134010Y-45153411D01*
X43296525Y-45396632D01*
X43503368Y-45603475D01*
X43677760Y-45720000D01*
X43503368Y-45836525D01*
X43296525Y-46043368D01*
X43134010Y-46286589D01*
X43022068Y-46556842D01*
X42965000Y-46843740D01*
X42965000Y-47136260D01*
X43022068Y-47423158D01*
X43134010Y-47693411D01*
X43296525Y-47936632D01*
X43503368Y-48143475D01*
X43677760Y-48260000D01*
X43503368Y-48376525D01*
X43296525Y-48583368D01*
X43134010Y-48826589D01*
X43022068Y-49096842D01*
X42965000Y-49383740D01*
X42965000Y-49676260D01*
X43022068Y-49963158D01*
X43134010Y-50233411D01*
X43296525Y-50476632D01*
X43503368Y-50683475D01*
X43677760Y-50800000D01*
X43503368Y-50916525D01*
X43296525Y-51123368D01*
X43134010Y-51366589D01*
X43022068Y-51636842D01*
X42965000Y-51923740D01*
X42965000Y-52216260D01*
X43022068Y-52503158D01*
X43134010Y-52773411D01*
X43296525Y-53016632D01*
X43503368Y-53223475D01*
X43677760Y-53340000D01*
X43503368Y-53456525D01*
X43296525Y-53663368D01*
X43134010Y-53906589D01*
X43022068Y-54176842D01*
X42965000Y-54463740D01*
X42965000Y-54756260D01*
X43022068Y-55043158D01*
X43134010Y-55313411D01*
X43296525Y-55556632D01*
X43503368Y-55763475D01*
X43677760Y-55880000D01*
X43503368Y-55996525D01*
X43296525Y-56203368D01*
X43134010Y-56446589D01*
X43022068Y-56716842D01*
X42965000Y-57003740D01*
X42965000Y-57296260D01*
X43022068Y-57583158D01*
X43134010Y-57853411D01*
X43296525Y-58096632D01*
X43503368Y-58303475D01*
X43685534Y-58425195D01*
X43568645Y-58494822D01*
X43352412Y-58689731D01*
X43178359Y-58923080D01*
X43053175Y-59185901D01*
X43008524Y-59333110D01*
X43129845Y-59563000D01*
X44323000Y-59563000D01*
X44323000Y-59543000D01*
X44577000Y-59543000D01*
X44577000Y-59563000D01*
X44597000Y-59563000D01*
X44597000Y-59817000D01*
X44577000Y-59817000D01*
X44577000Y-59837000D01*
X44323000Y-59837000D01*
X44323000Y-59817000D01*
X43129845Y-59817000D01*
X43008524Y-60046890D01*
X43053175Y-60194099D01*
X43178359Y-60456920D01*
X43352412Y-60690269D01*
X43568645Y-60885178D01*
X43685534Y-60954805D01*
X43503368Y-61076525D01*
X43296525Y-61283368D01*
X43134010Y-61526589D01*
X43022068Y-61796842D01*
X42965000Y-62083740D01*
X42965000Y-62376260D01*
X43022068Y-62663158D01*
X43134010Y-62933411D01*
X43296525Y-63176632D01*
X43503368Y-63383475D01*
X43677760Y-63500000D01*
X43503368Y-63616525D01*
X43296525Y-63823368D01*
X43134010Y-64066589D01*
X43022068Y-64336842D01*
X42965000Y-64623740D01*
X42965000Y-64916260D01*
X43022068Y-65203158D01*
X43134010Y-65473411D01*
X43296525Y-65716632D01*
X43503368Y-65923475D01*
X43677760Y-66040000D01*
X43503368Y-66156525D01*
X43296525Y-66363368D01*
X43134010Y-66606589D01*
X43022068Y-66876842D01*
X42965000Y-67163740D01*
X42965000Y-67456260D01*
X43022068Y-67743158D01*
X43134010Y-68013411D01*
X43296525Y-68256632D01*
X43428380Y-68388487D01*
X43355820Y-68410498D01*
X43245506Y-68469463D01*
X43148815Y-68548815D01*
X43069463Y-68645506D01*
X43010498Y-68755820D01*
X42974188Y-68875518D01*
X42961928Y-69000000D01*
X12827000Y-69000000D01*
X12827000Y-21233110D01*
X43008524Y-21233110D01*
X43129845Y-21463000D01*
X44323000Y-21463000D01*
X44323000Y-20269186D01*
X44093109Y-20148519D01*
X43818748Y-20245843D01*
X43568645Y-20394822D01*
X43352412Y-20589731D01*
X43178359Y-20823080D01*
X43053175Y-21085901D01*
X43008524Y-21233110D01*
X12827000Y-21233110D01*
X12827000Y-16522032D01*
X20710000Y-16522032D01*
X20710000Y-16917968D01*
X20787243Y-17306296D01*
X20938761Y-17672092D01*
X21158731Y-18001301D01*
X21438699Y-18281269D01*
X21767908Y-18501239D01*
X22133704Y-18652757D01*
X22522032Y-18730000D01*
X22917968Y-18730000D01*
X23306296Y-18652757D01*
X23672092Y-18501239D01*
X24001301Y-18281269D01*
X24281269Y-18001301D01*
X24501239Y-17672092D01*
X24652757Y-17306296D01*
X24730000Y-16917968D01*
X24730000Y-16522032D01*
X43710000Y-16522032D01*
X43710000Y-16917968D01*
X43787243Y-17306296D01*
X43938761Y-17672092D01*
X44158731Y-18001301D01*
X44438699Y-18281269D01*
X44767908Y-18501239D01*
X45133704Y-18652757D01*
X45522032Y-18730000D01*
X45917968Y-18730000D01*
X46306296Y-18652757D01*
X46672092Y-18501239D01*
X47001301Y-18281269D01*
X47281269Y-18001301D01*
X47501239Y-17672092D01*
X47652757Y-17306296D01*
X47730000Y-16917968D01*
X47730000Y-16522032D01*
X47652757Y-16133704D01*
X47501239Y-15767908D01*
X47281269Y-15438699D01*
X47001301Y-15158731D01*
X46672092Y-14938761D01*
X46306296Y-14787243D01*
X45917968Y-14710000D01*
X45522032Y-14710000D01*
X45133704Y-14787243D01*
X44767908Y-14938761D01*
X44438699Y-15158731D01*
X44158731Y-15438699D01*
X43938761Y-15767908D01*
X43787243Y-16133704D01*
X43710000Y-16522032D01*
X24730000Y-16522032D01*
X24652757Y-16133704D01*
X24501239Y-15767908D01*
X24281269Y-15438699D01*
X24001301Y-15158731D01*
X23672092Y-14938761D01*
X23306296Y-14787243D01*
X22917968Y-14710000D01*
X22522032Y-14710000D01*
X22133704Y-14787243D01*
X21767908Y-14938761D01*
X21438699Y-15158731D01*
X21158731Y-15438699D01*
X20938761Y-15767908D01*
X20787243Y-16133704D01*
X20710000Y-16522032D01*
X12827000Y-16522032D01*
X12827000Y-10287000D01*
X60833000Y-10287000D01*
X60833000Y-87503000D01*
M02*
